<svg width="741" height="372"
    xmlns="http://www.w3.org/2000/svg"
    xmlns:xlink="http://www.w3.org/1999/xlink">
    <defs>
        <rect id="a" width="507" height="376" rx="5"/>
        <linearGradient x1="0%" y1="50%" y2="50%" id="c">
            <stop stop-color="#F0EEE1" offset="0%"/>
            <stop stop-color="#EFEFE1" offset="60.8%"/>
            <stop stop-color="#D2DEDE" offset="100%"/>
        </linearGradient>
        <linearGradient x1="0%" y1="50%" y2="50%" id="d">
            <stop stop-color="#FFF" offset="0%"/>
            <stop stop-color="#85AAB0" offset="77.8%"/>
        </linearGradient>
        <linearGradient x1="0%" y1="50%" y2="50%" id="e">
            <stop stop-color="#FFF" offset="0%"/>
            <stop stop-color="#85AAB0" offset="77.8%"/>
        </linearGradient>
        <linearGradient x1="0%" y1="50%" y2="50%" id="f">
            <stop stop-color="#FFF" offset="0%"/>
            <stop stop-color="#85AAB0" offset="77.8%"/>
        </linearGradient>
        <linearGradient x1=".2%" y1="50.1%" x2="100.1%" y2="50.1%" id="g">
            <stop stop-color="#FFF" offset="0%"/>
            <stop stop-color="#85AAB0" offset="77.8%"/>
        </linearGradient>
        <linearGradient x1="-.2%" y1="49.3%" x2="100.1%" y2="49.3%" id="h">
            <stop stop-color="#FFF" offset="0%"/>
            <stop stop-color="#85AAB0" offset="77.8%"/>
        </linearGradient>
        <linearGradient x1="0%" y1="50%" y2="50%" id="i">
            <stop stop-color="#FFF" offset="0%"/>
            <stop stop-color="#85AAB0" offset="77.8%"/>
        </linearGradient>
        <linearGradient x1="30.9%" y1="72.8%" x2="76.3%" y2="19.2%" id="j">
            <stop stop-color="#263041" offset="0%"/>
            <stop stop-color="#302E41" offset="100%"/>
        </linearGradient>
        <linearGradient x1="44.4%" y1="56.4%" x2="60.9%" y2="31.9%" id="k">
            <stop stop-color="#FFF" offset="0%"/>
            <stop stop-color="#85AAB0" offset="77.8%"/>
        </linearGradient>
        <linearGradient x1="0%" y1="50%" y2="50%" id="l">
            <stop stop-color="#FFF" stop-opacity=".5" offset="0%"/>
            <stop stop-color="#DB7643" offset="83.6%"/>
        </linearGradient>
        <linearGradient x1="0%" y1="50%" x2="100.1%" y2="50%" id="m">
            <stop stop-color="#263041" offset="0%"/>
            <stop stop-color="#302E41" offset="100%"/>
        </linearGradient>
        <linearGradient x1="0%" y1="50%" y2="50%" id="n">
            <stop stop-color="#E08944" offset="0%"/>
            <stop stop-color="#EBBB5C" offset="100%"/>
        </linearGradient>
        <rect id="p" width="157" height="60" rx="5"/>
        <filter x="-22.3%" y="-43.3%" width="144.6%" height="233.3%" filterUnits="objectBoundingBox" id="o">
            <feOffset dy="19" in="SourceAlpha" result="shadowOffsetOuter1"/>
            <feGaussianBlur stdDeviation="8.5" in="shadowOffsetOuter1" result="shadowBlurOuter1"/>
            <feColorMatrix values="0 0 0 0 0 0 0 0 0 0 0 0 0 0 0 0 0 0 0.0820039336 0" in="shadowBlurOuter1" result="shadowMatrixOuter1"/>
            <feOffset in="SourceAlpha" result="shadowOffsetOuter2"/>
            <feGaussianBlur stdDeviation="4" in="shadowOffsetOuter2" result="shadowBlurOuter2"/>
            <feColorMatrix values="0 0 0 0 0 0 0 0 0 0 0 0 0 0 0 0 0 0 0.0430233829 0" in="shadowBlurOuter2" result="shadowMatrixOuter2"/>
            <feMerge>
                <feMergeNode in="shadowMatrixOuter1"/>
                <feMergeNode in="shadowMatrixOuter2"/>
            </feMerge>
        </filter>
        <linearGradient x1="50%" y1="0%" x2="50%" y2="100%" id="q">
            <stop stop-color="#DDE1E6" offset="0%"/>
            <stop stop-color="#F0F3F6" offset="100%"/>
        </linearGradient>
        <filter x="-131.6%" y="-41.3%" width="363.2%" height="182.6%" filterUnits="objectBoundingBox" id="r">
            <feOffset dy="12" in="SourceAlpha" result="shadowOffsetOuter1"/>
            <feGaussianBlur stdDeviation="7" in="shadowOffsetOuter1" result="shadowBlurOuter1"/>
            <feColorMatrix values="0 0 0 0 0 0 0 0 0 0 0 0 0 0 0 0 0 0 0.245246941 0" in="shadowBlurOuter1" result="shadowMatrixOuter1"/>
            <feMerge>
                <feMergeNode in="shadowMatrixOuter1"/>
                <feMergeNode in="SourceGraphic"/>
            </feMerge>
        </filter>
        <filter x="-52.4%" y="-13.7%" width="204.7%" height="127.4%" filterUnits="objectBoundingBox" id="s">
            <feOffset dx="4" dy="-1" in="SourceAlpha" result="shadowOffsetOuter1"/>
            <feGaussianBlur stdDeviation="9.5" in="shadowOffsetOuter1" result="shadowBlurOuter1"/>
            <feColorMatrix values="0 0 0 0 0 0 0 0 0 0 0 0 0 0 0 0 0 0 0.14330201 0" in="shadowBlurOuter1" result="shadowMatrixOuter1"/>
            <feMerge>
                <feMergeNode in="shadowMatrixOuter1"/>
                <feMergeNode in="SourceGraphic"/>
            </feMerge>
        </filter>
        <rect id="t" width="85" height="50" rx="2"/>
        <path d="M2 0h81a2 2 0 0 1 2 2v46a2 2 0 0 1-2 2H2a2 2 0 0 1-2-2V2a2 2 0 0 1 2-2z" id="v"/>
        <rect id="x" width="85" height="50" rx="2"/>
        <rect id="z" width="85" height="50" rx="2"/>
        <rect id="B" width="85" height="50" rx="2"/>
        <rect id="D" width="85" height="50" rx="2"/>
        <filter x="-35.1%" y="-127.8%" width="170.2%" height="355.6%" filterUnits="objectBoundingBox" id="F">
            <feOffset dy="10" in="SourceAlpha" result="shadowOffsetOuter1"/>
            <feGaussianBlur stdDeviation="7" in="shadowOffsetOuter1" result="shadowBlurOuter1"/>
            <feColorMatrix values="0 0 0 0 0 0 0 0 0 0 0 0 0 0 0 0 0 0 0.160757212 0" in="shadowBlurOuter1" result="shadowMatrixOuter1"/>
            <feMerge>
                <feMergeNode in="shadowMatrixOuter1"/>
                <feMergeNode in="SourceGraphic"/>
            </feMerge>
        </filter>
    </defs>
    <g transform="translate(14 4)" fill="none" fill-rule="evenodd">
        <path d="M84 37h6v6h-6zm11 0h6v6h-6zm11 0h6v6h-6zm11 0h6v6h-6zm11 0h6v6h-6zm11 0h6v6h-6zm11 0h6v6h-6zm11 0h6v6h-6zM84 48h6v6h-6zm11 0h6v6h-6zm11 0h6v6h-6zm11 0h6v6h-6zm11 0h6v6h-6zm11 0h6v6h-6zm11 0h6v6h-6zm11 0h6v6h-6zM84 59h6v6h-6zm11 0h6v6h-6zm11 0h6v6h-6zm11 0h6v6h-6zm11 0h6v6h-6zm11 0h6v6h-6zm11 0h6v6h-6zm11 0h6v6h-6zM84 70h6v6h-6zm11 0h6v6h-6zm11 0h6v6h-6zm11 0h6v6h-6zm11 0h6v6h-6zm11 0h6v6h-6zm11 0h6v6h-6zm11 0h6v6h-6zM614.6 69l4.2 4.2-4.2 4.3-4.3-4.3zm7.8 7.8l4.2 4.2-4.2 4.3L618 81zm7.7 7.8l4.3 4.2L630 93l-4.2-4.2zm7.8 7.7l4.3 4.3-4.3 4.2-4.2-4.2zm7.8 7.8l4.2 4.3-4.2 4.2-4.3-4.2zm7.8 7.8l4.2 4.2-4.2 4.3-4.3-4.3zm7.7 7.8l4.3 4.2-4.3 4.3-4.2-4.3zm7.8 7.7l4.3 4.3-4.3 4.2-4.2-4.2zm-62.2-46.6L611 81l-4.2 4.3-4.2-4.3zm7.8 7.8l4.2 4.2-4.2 4.2-4.3-4.2zm7.8 7.7l4.2 4.3-4.2 4.2-4.3-4.2zm7.7 7.8l4.3 4.3-4.3 4.2-4.2-4.2zm7.8 7.8l4.3 4.2-4.3 4.3-4.2-4.3zm7.8 7.8l4.2 4.2-4.2 4.3-4.3-4.3zm7.8 7.7l4.2 4.3-4.2 4.2-4.3-4.2zm7.7 7.8l4.3 4.3-4.3 4.2-4.2-4.2zM599 84.6l4.3 4.2L599 93l-4.2-4.2zm7.8 7.7l4.2 4.3-4.2 4.2-4.2-4.2zm7.8 7.8l4.2 4.3-4.2 4.2-4.3-4.2zm7.8 7.8l4.2 4.2-4.2 4.3-4.3-4.3zm7.7 7.8l4.3 4.2-4.3 4.3-4.2-4.3zm7.8 7.7l4.3 4.3-4.3 4.2-4.2-4.2zm7.8 7.8l4.2 4.3-4.2 4.2-4.3-4.2zm7.8 7.8l4.2 4.2-4.2 4.3-4.3-4.3zm-62.3-46.7l4.3 4.3-4.3 4.2-4.2-4.2zm7.8 7.8l4.3 4.3-4.3 4.2-4.2-4.2zm7.8 7.8l4.2 4.2-4.2 4.3-4.2-4.3zm7.8 7.8l4.2 4.2-4.2 4.3-4.3-4.3zm7.8 7.7l4.2 4.3-4.2 4.2-4.3-4.2zm7.7 7.8l4.3 4.3-4.3 4.2-4.2-4.2zm7.8 7.8l4.3 4.2-4.3 4.3-4.2-4.3zm7.8 7.8l4.2 4.2-4.2 4.3-4.3-4.3z" fill="#D8D8D8"/>
        <circle fill="#E6A451" cx="642" cy="76" r="31"/>
        <g transform="translate(126 9)">
            <mask id="b" fill="#fff">
                <use xlink:href="#a"/>
            </mask>
            <use fill="#179A80" xlink:href="#a">
                <animate attributeName="fill" values="#179A80;#2950C3;#F69F30;#179A80;" dur="10s" repeatCount="indefinite" />
            </use>
            <g mask="url(#b)">
                <g transform="translate(38 120)">
                    <rect fill="#FFF" y="93" width="89" height="16" rx="2"/>
                    <rect fill-opacity=".5" fill="#000" x="93" y="93" width="46" height="16" rx="2"/>
                    <path d="M11.4 6.7H7.2V18H4.5V6.7H.4V4.5h11v2.2zm4 2.4c.7-.9 1.6-1.3 2.7-1.3 2.2 0 3.3 1.2 3.3 3.8V18h-2.7v-6.4c0-.5-.1-1-.4-1.2-.2-.3-.6-.4-1.2-.4-.8 0-1.3.3-1.7.9V18h-2.7V3.7h2.7v5.4zM26.2 18h-2.6V8h2.6v10zM23.4 5.4c0-.4.1-.8.4-1 .3-.3.6-.4 1.1-.4.5 0 .8.1 1.1.4.3.2.4.6.4 1s-.1.7-.4 1c-.3.2-.6.4-1.1.4-.5 0-.8-.2-1-.4-.4-.3-.5-.6-.5-1zm10.5 9.8c0-.3-.2-.6-.5-.7l-1.6-.6c-2.3-.5-3.5-1.5-3.5-3 0-.9.3-1.6 1-2.2.8-.6 1.8-1 3-1s2.3.4 3 1c.8.6 1.2 1.4 1.2 2.3h-2.7c0-.4-.1-.7-.4-1-.2-.2-.6-.3-1.1-.3-.5 0-.8 0-1 .3a1 1 0 0 0-.5.8c0 .3.2.5.5.7.2.2.7.3 1.4.5l1.7.4c1.4.5 2.1 1.4 2.1 2.7 0 1-.4 1.7-1.2 2.2a5 5 0 0 1-3 .9c-.9 0-1.6-.2-2.3-.5-.6-.3-1.1-.7-1.5-1.2a2.9 2.9 0 0 1-.6-1.7h2.6c0 .5.2.8.5 1.1.3.3.8.4 1.3.4a2 2 0 0 0 1.2-.3 1 1 0 0 0 .4-.8zM47 16c.5 0 1-.1 1.2-.4.3-.3.5-.6.5-1h2.5a3.4 3.4 0 0 1-.5 1.8 3.7 3.7 0 0 1-1.5 1.3 4.7 4.7 0 0 1-2.1.5c-1.5 0-2.6-.5-3.4-1.4-.8-.9-1.3-2.2-1.3-3.8V13c0-1.6.4-2.8 1.3-3.7.8-1 2-1.4 3.4-1.4 1.2 0 2.2.3 3 1 .7.8 1.1 1.7 1.1 2.9h-2.5c0-.5-.2-1-.5-1.3-.3-.3-.7-.5-1.2-.5-.6 0-1 .3-1.4.7-.3.5-.5 1.2-.5 2.2v.3c0 1 .2 1.8.5 2.2.3.5.8.7 1.4.7zm5.3-3.1c0-1 .2-1.9.6-2.7a4.2 4.2 0 0 1 1.7-1.8c.7-.4 1.5-.6 2.5-.6 1.3 0 2.4.4 3.3 1.2a5 5 0 0 1 1.4 3.4v.7c0 1.5-.4 2.8-1.2 3.7-.9 1-2 1.4-3.5 1.4s-2.6-.5-3.5-1.4c-.8-1-1.3-2.2-1.3-3.8V13zm2.7.2c0 1 .2 1.7.6 2.2.3.5.8.7 1.5.7s1.2-.2 1.5-.7c.4-.5.6-1.3.6-2.4 0-1-.2-1.7-.6-2.2-.3-.5-.9-.8-1.5-.8-.7 0-1.2.3-1.5.8-.4.5-.6 1.3-.6 2.4zM69.6 17c-.6.8-1.6 1.2-2.7 1.2s-2-.3-2.5-1c-.6-.6-.8-1.5-.9-2.7V8h2.7v6.4c0 1 .5 1.6 1.5 1.6.9 0 1.5-.3 1.8-1V8h2.7v10h-2.5v-1zm7.5 1h-2.7V3.7H77V18zm1.8-5a6 6 0 0 1 1-3.8c.7-1 1.7-1.4 2.9-1.4 1 0 1.8.3 2.4 1v-5H88V18h-2.4l-.1-1c-.7.8-1.6 1.2-2.6 1.2-1.2 0-2.2-.5-2.9-1.4-.7-1-1-2.2-1-3.9zm2.6.1c0 1 .2 1.7.5 2.2.4.5.8.7 1.5.7.8 0 1.4-.3 1.7-1v-4c-.3-.7-.9-1-1.7-1-1.3 0-2 1-2 3.1zm22.3 0a6 6 0 0 1-1 3.7c-.8 1-1.7 1.4-3 1.4-1 0-1.9-.4-2.6-1.3V18h-2.5V3.7h2.7V9a3 3 0 0 1 2.4-1.1c1.3 0 2.2.4 3 1.3a6 6 0 0 1 1 3.8v.2zm-2.7-.2c0-1-.2-1.8-.5-2.2-.3-.5-.8-.7-1.4-.7-.9 0-1.5.3-1.8 1v4c.3.7 1 1 1.8 1s1.4-.4 1.7-1.3l.2-1.8zm9 5.3a5 5 0 0 1-3.7-1.4c-.9-.9-1.4-2-1.4-3.6V13c0-1 .2-2 .6-2.7.4-.8 1-1.4 1.7-1.9.7-.4 1.5-.6 2.4-.6 1.4 0 2.5.4 3.3 1.3.8.8 1.2 2 1.2 3.7v1h-6.4c0 .7.3 1.2.8 1.6.4.4 1 .6 1.6.6 1 0 1.8-.3 2.4-1.1l1.3 1.5c-.4.5-.9 1-1.6 1.3-.7.3-1.4.5-2.3.5zm-.4-8.3c-.5 0-1 .2-1.3.6-.3.3-.5.9-.6 1.5h3.7v-.2c0-.6-.1-1-.5-1.4-.3-.3-.7-.5-1.3-.5zm14.5 4.3L126 8h2.9l-4 11.6-.3.5c-.6 1.3-1.6 2-3 2l-1.1-.2v-2h.4c.5 0 .9-.1 1.1-.3.3-.1.5-.4.6-.7l.3-.9-3.5-10h2.9l1.9 6.2zm5.2-1.3c0-1 .2-1.9.6-2.7a4.2 4.2 0 0 1 1.6-1.8c.7-.4 1.6-.6 2.5-.6 1.4 0 2.5.4 3.3 1.2a5 5 0 0 1 1.5 3.4v.7c0 1.5-.4 2.8-1.3 3.7-.8 1-2 1.4-3.4 1.4-1.5 0-2.7-.5-3.5-1.4-.9-1-1.3-2.2-1.3-3.8V13zm2.7.2c0 1 .2 1.7.5 2.2.4.5.9.7 1.6.7.6 0 1.1-.2 1.5-.7s.5-1.3.5-2.4c0-1-.2-1.7-.5-2.2-.4-.5-1-.8-1.6-.8-.6 0-1.1.3-1.5.8-.3.5-.5 1.3-.5 2.4zm14.5 3.9c-.7.8-1.6 1.2-2.8 1.2-1 0-1.9-.3-2.4-1-.6-.6-.9-1.5-1-2.7V8h2.8v6.4c0 1 .4 1.6 1.4 1.6 1 0 1.5-.3 1.9-1V8h2.7v10h-2.6v-1zm10.2-6.5a7.3 7.3 0 0 0-1-.1c-1 0-1.6.3-2 1V18h-2.6V8h2.5v1.2c.6-1 1.4-1.4 2.3-1.4l.9.1v2.6zM6.8 41a3 3 0 0 1-.2-.9c-.7.7-1.5 1-2.6 1-1 0-1.8-.2-2.4-.8-.6-.5-1-1.3-1-2.1 0-1 .4-1.9 1.2-2.5.8-.5 2-.8 3.4-.8h1.3v-.6c0-.5-.2-.8-.4-1.1-.2-.3-.6-.4-1.1-.4-.5 0-.8 0-1 .3-.3.2-.5.5-.5.9H1c0-.6.1-1.1.5-1.6s.9-1 1.5-1.2c.7-.3 1.4-.4 2.2-.4 1.3 0 2.2.3 3 1 .7.5 1 1.4 1 2.5v4.4c0 1 .2 1.7.5 2.1v.2H6.8zm-2.2-1.9c.4 0 .8 0 1.1-.2.4-.2.6-.4.8-.7v-1.8h-1c-1.4 0-2 .5-2.2 1.4v.2c0 .3.1.6.4.8.2.2.5.3 1 .3zm9.1-8.1l.1 1c.7-.8 1.7-1.2 2.9-1.2 1.3 0 2.2.5 2.7 1.5.7-1 1.7-1.5 3-1.5 1 0 1.9.3 2.4 1 .5.6.8 1.5.8 2.8V41H23v-6.4c0-.6-.1-1-.3-1.2-.2-.3-.6-.4-1.2-.4-.8 0-1.4.3-1.7 1.1V41h-2.6v-6.4c0-.6-.2-1-.4-1.3-.2-.2-.6-.3-1.2-.3-.7 0-1.3.3-1.6.9V41h-2.7V31h2.5zm19.8 10a3 3 0 0 1-.3-.9c-.6.7-1.5 1-2.5 1s-1.8-.2-2.5-.8c-.6-.5-1-1.3-1-2.1 0-1 .5-1.9 1.2-2.5.8-.5 2-.8 3.5-.8H33v-.6c0-.5-.1-.8-.4-1.1-.2-.3-.6-.4-1-.4-.5 0-.9 0-1.1.3-.3.2-.4.5-.4.9h-2.7c0-.6.2-1.1.5-1.6.4-.5.9-1 1.5-1.2.7-.3 1.4-.4 2.3-.4 1.2 0 2.2.3 2.9 1 .7.5 1 1.4 1 2.5v4.4c.1 1 .2 1.7.5 2.1v.2h-2.7zm-2.2-1.9c.4 0 .7 0 1-.2.4-.2.6-.4.8-.7v-1.8h-1c-1.3 0-2 .5-2.1 1.4v.2c0 .3 0 .6.3.8.2.2.6.3 1 .3zm9.6-.3h5V41h-8.4v-1.6l4.7-6.3h-4.6V31h8v1.5L41 38.8zm9.4 2.2h-2.6V31h2.6v10zm-2.8-12.6c0-.4.1-.8.4-1 .3-.3.6-.4 1.1-.4.5 0 .8.1 1.1.4s.4.6.4 1-.1.7-.4 1c-.3.2-.6.4-1.1.4-.4 0-.8-.2-1-.4-.4-.3-.5-.6-.5-1zM55 31l.1 1.1c.7-.9 1.7-1.3 2.9-1.3 1 0 1.8.3 2.4 1 .5.5.8 1.5.8 2.7V41h-2.7v-6.4c0-.6-.1-1-.4-1.3-.2-.2-.6-.3-1.2-.3-.8 0-1.3.3-1.7 1v7h-2.7V31H55zm7.8 5c0-1.6.4-2.9 1.1-3.8.7-1 1.7-1.4 3-1.4 1 0 2 .4 2.5 1.1l.2-1H72v9.8c0 .8-.2 1.6-.6 2.3a3.8 3.8 0 0 1-1.7 1.4 6 6 0 0 1-2.5.6 5.5 5.5 0 0 1-2.2-.5c-.7-.3-1.2-.7-1.6-1.1l1.2-1.7c.7.8 1.5 1.2 2.4 1.2.7 0 1.3-.2 1.7-.6.4-.4.6-1 .6-1.6V40c-.6.7-1.4 1-2.4 1-1.3 0-2.2-.4-3-1.3-.7-1-1-2.2-1-3.8zm2.7.1c0 1 .2 1.6.5 2.1.4.6.9.8 1.5.8.9 0 1.4-.3 1.8-.9v-4.2c-.4-.6-1-1-1.7-1s-1.2.3-1.6.8c-.3.6-.5 1.4-.5 2.4zm18.7 2.1c0-.3-.2-.6-.5-.7l-1.5-.6c-2.4-.5-3.6-1.5-3.6-3 0-.9.3-1.6 1-2.2.8-.6 1.8-1 3-1 1.3 0 2.3.4 3 1 .8.6 1.2 1.4 1.2 2.3H84c0-.4-.1-.7-.4-1-.2-.2-.6-.3-1.1-.3-.5 0-.8 0-1 .3a1 1 0 0 0-.4.8c0 .3.1.5.4.7l1.4.5 1.7.4c1.4.5 2.1 1.4 2.1 2.7 0 1-.4 1.7-1.2 2.2a5 5 0 0 1-3 .9c-.8 0-1.6-.2-2.2-.5-.7-.3-1.2-.7-1.6-1.2a2.9 2.9 0 0 1-.5-1.7h2.5c0 .5.2.8.5 1.1.4.3.8.4 1.4.4a2 2 0 0 0 1.1-.3 1 1 0 0 0 .4-.8zm7.6-9.7V31h1.7v2h-1.7v5c0 .3 0 .6.2.7.1.2.4.3.8.3h.8v2a5.5 5.5 0 0 1-1.7.2c-1.8 0-2.8-1-2.8-2.9V33h-1.5v-2h1.5v-2.4h2.7zm9 12.5a3 3 0 0 1-.3-.9c-.6.7-1.5 1-2.5 1s-1.8-.2-2.5-.8c-.6-.5-1-1.3-1-2.1 0-1 .5-1.9 1.2-2.5.8-.5 2-.8 3.5-.8h1.2v-.6c0-.5-.1-.8-.4-1.1-.2-.3-.6-.4-1-.4-.5 0-.9 0-1.1.3-.3.2-.4.5-.4.9h-2.7c0-.6.2-1.1.5-1.6.4-.5.9-1 1.5-1.2.7-.3 1.4-.4 2.3-.4 1.2 0 2.2.3 2.9 1 .7.5 1 1.4 1 2.5v4.4c.1 1 .2 1.7.5 2.1v.2h-2.7zm-2.2-1.9c.4 0 .7 0 1-.2.4-.2.6-.4.8-.7v-1.8h-1c-1.3 0-2 .5-2.1 1.4v.2c0 .3 0 .6.3.8.2.2.6.3 1 .3zm12.2-5.6a7.3 7.3 0 0 0-1-.1c-1 0-1.7.3-2 1V41h-2.7V31h2.6v1.2c.6-1 1.3-1.4 2.3-1.4l.8.1v2.6zm5-5V31h1.7v2h-1.7v5c0 .3 0 .6.2.7.1.2.4.3.8.3h.8v2a5.5 5.5 0 0 1-1.7.2c-1.8 0-2.8-1-2.8-2.9V33h-1.5v-2h1.5v-2.4h2.7zM125 40c-.7.8-1.6 1.2-2.8 1.2-1 0-1.9-.3-2.4-1-.6-.6-.9-1.5-.9-2.7V31h2.7v6.4c0 1 .5 1.6 1.4 1.6 1 0 1.5-.3 1.9-1v-7h2.7v10H125v-1zm13.6-4a6 6 0 0 1-1 3.8c-.7 1-1.7 1.4-2.9 1.4-1 0-1.8-.4-2.4-1v4.7h-2.7v-14h2.5v1c.7-.7 1.6-1.1 2.6-1.1 1.3 0 2.2.4 2.9 1.3.7 1 1 2.2 1 3.8v.2zM136 36a4 4 0 0 0-.5-2.2c-.4-.5-.9-.7-1.5-.7-.8 0-1.4.3-1.7 1v4c.3.7.9 1 1.7 1 1.3 0 2-1 2-3.1zm17.8 1.5L155 31h2.6L155 41h-2.2l-2-6.3-1.8 6.3h-2.3l-2.5-10h2.5l1.4 6.3L150 31h2l1.8 6.4zm9.8 3.8a5 5 0 0 1-3.6-1.4c-1-.9-1.4-2-1.4-3.6V36c0-1 .2-2 .6-2.7.4-.8 1-1.4 1.7-1.9.7-.4 1.5-.6 2.4-.6 1.4 0 2.5.4 3.3 1.3.7.8 1.1 2 1.1 3.7v1h-6.4c.1.7.4 1.2.8 1.6.5.4 1 .6 1.7.6 1 0 1.8-.3 2.4-1.1l1.3 1.5c-.4.5-1 1-1.6 1.3-.7.3-1.5.5-2.3.5zm-.3-8.3c-.5 0-1 .2-1.3.6-.3.3-.5.9-.6 1.5h3.7v-.2c0-.6-.2-1-.5-1.4-.3-.3-.7-.5-1.3-.5zm15 3.2a6 6 0 0 1-1 3.7c-.7 1-1.7 1.4-2.9 1.4-1 0-2-.4-2.6-1.3l-.1 1.1h-2.4V26.7h2.6V32a3 3 0 0 1 2.5-1.1c1.2 0 2.2.4 2.9 1.3a6 6 0 0 1 1 3.8v.2zm-2.7-.2a4 4 0 0 0-.5-2.2c-.3-.5-.8-.7-1.4-.7-.9 0-1.4.3-1.8 1v4c.4.7 1 1 1.8 1 .9 0 1.5-.4 1.7-1.3.2-.4.2-1 .2-1.8zm9.8 2.3c0-.3-.2-.6-.5-.7l-1.6-.6c-2.3-.5-3.5-1.5-3.5-3 0-.9.3-1.6 1-2.2.8-.6 1.8-1 3-1s2.3.4 3 1c.8.6 1.2 1.4 1.2 2.3h-2.7c0-.4-.1-.7-.4-1-.2-.2-.6-.3-1.1-.3-.5 0-.8 0-1 .3a1 1 0 0 0-.5.8c0 .3.2.5.5.7.2.2.7.3 1.4.5l1.7.4c1.4.5 2.1 1.4 2.1 2.7 0 1-.4 1.7-1.2 2.2a5 5 0 0 1-3 .9c-.9 0-1.6-.2-2.3-.5-.6-.3-1.1-.7-1.5-1.2a2.9 2.9 0 0 1-.6-1.7h2.6c0 .5.2.8.5 1.1.3.3.8.4 1.3.4a2 2 0 0 0 1.2-.3 1 1 0 0 0 .4-.8zm7.2 2.8h-2.7V31h2.7v10zm-2.9-12.6c0-.4.1-.8.4-1 .3-.3.6-.4 1.1-.4.5 0 .8.1 1.1.4.3.2.4.6.4 1s-.1.7-.4 1c-.3.2-.6.4-1 .4-.5 0-1-.2-1.2-.4-.3-.3-.4-.6-.4-1zm8.3 0V31h1.7v2H198v5c0 .3 0 .6.2.7.1.2.4.3.8.3h.8v2a5.5 5.5 0 0 1-1.6.2c-2 0-2.9-1-3-2.9V33h-1.4v-2h1.5v-2.4h2.7zm7.8 12.8a5 5 0 0 1-3.6-1.4c-1-.9-1.4-2-1.4-3.6V36c0-1 .2-2 .6-2.7.4-.8 1-1.4 1.7-1.9.7-.4 1.5-.6 2.4-.6 1.4 0 2.5.4 3.2 1.3.8.8 1.2 2 1.2 3.7v1h-6.4c.1.7.4 1.2.8 1.6.5.4 1 .6 1.7.6 1 0 1.8-.3 2.4-1.1l1.3 1.5c-.4.5-1 1-1.6 1.3-.7.3-1.5.5-2.3.5zm-.3-8.3c-.5 0-1 .2-1.3.6-.3.3-.5.9-.6 1.5h3.7v-.2c0-.6-.2-1-.5-1.4-.3-.3-.7-.5-1.3-.5z" fill="#FFF" fill-rule="nonzero"/>
                    <rect fill="#FFF" opacity=".5" y="60" width="185" height="4" rx="1"/>
                    <rect fill="#FFF" opacity=".5" y="72" width="103" height="4" rx="1"/>
                </g>
            </g>
            <g mask="url(#b)" fill-rule="nonzero">
                <g fill="#F4F9F9" opacity=".9">
                    <path d="M458.7 243.5a16.9 16.9 0 0 1-3.2 3 21.3 21.3 0 0 1-3.8 2.1l-.5.2a21 21 0 0 1-4.1 1.3c-2.8.6-5.7.5-8-.6a7.3 7.3 0 0 1-1.5-1 7.6 7.6 0 0 1-1.5-1.7c0-.2-.2-.3-.3-.5-1.6-2.8-2-6.5-1.2-9.5.5-2.4 1.5-4 3-5.5 1.9-1.8 4.4-3.5 7.4-6.1a58.2 58.2 0 0 0 4.9-4.8c8-8.9 8.2-14.5 10.6-14.1 5 .8 7 26.7-1.8 37.2zm-67.4-59.8v.3l-.1.1v.1a95 95 0 0 1-5.8 12.6l-.2.4-1.2 2.1a81.8 81.8 0 0 1-2.6 4.2l-.3.4a116.5 116.5 0 0 1-26.1 27l-4.5 2.9c-5.2 3.2-13.1 7.5-22 9.7a44.7 44.7 0 0 1-14.2 1.1h-.5a30 30 0 0 1-9.2-2.7 29.9 29.9 0 0 1-2.4-1.3s-3.9-2.4-7.4-6.3c-13.4-14.8-13.9-32.9-13.9-32.9s0-2 .4-5.4l.2-1.4c1.1-6.6 4-17.1 12-27.4l.7-1 .6-.7c2.6-3 5-5 7.4-6.6 6.6-4.3 12.4-4.8 17.6-13.8a26 26 0 0 0 1.4-2.6c6.1-13.4-2-22.7 5.9-38l1.5-2.6a44.3 44.3 0 0 1 3.7-5.2l.4-.4a42 42 0 0 1 11.7-9.8l.5-.3a31.6 31.6 0 0 1 5.6-2.3 28.4 28.4 0 0 1 6.7-1.2h.7c7.4-.3 14 2.6 19.4 6.3a49.5 49.5 0 0 1 5.6 4.6l1.8 1.8a48.6 48.6 0 0 1 10.3 17l.2.6.8 2.8c6 23.9-1.5 59.3-4.7 67.9z"/>
                    <path d="M466.9 170.9v.1c-1 5.5-2.4 10.5-4 15.2a101.2 101.2 0 0 1-14.5 26.3 90.4 90.4 0 0 1-7.5 8.7 100.3 100.3 0 0 1-7.4 6.8c-5.8 4.8-12.2 9-19 12.2a77.6 77.6 0 0 1-7.4 3.1 76.5 76.5 0 0 1-4.5 1.5l-.9.2a64 64 0 0 1-20.3 2.2h-1.1l-3-.3c-5.5-.6-13.8-2.3-15.5-7.3-1.9-5.6 6-11.2 15.5-21.4l1.8-2 .5-.5a114.2 114.2 0 0 0 5-6.2 95.8 95.8 0 0 0 4-5.5 101.5 101.5 0 0 0 14.5-35.6l.2-.8c.5-2.7.9-4.8 1-6.4 5-34.3-10.3-55.3 1.7-66l1.1-1a18 18 0 0 1 7.4-3 29.1 29.1 0 0 1 19 2.9c2.6 1.2 5 2.9 7.4 4.8a79.3 79.3 0 0 1 22 32.3 86.3 86.3 0 0 1 3 9.7 73.6 73.6 0 0 1 1 30zM322.7 99l-.4.7c-1.4 2.4-3 5.4-4.8 9a48 48 0 0 0-1.9 7.7c-1.3 9.2 1.4 12.3.4 18.1a14.9 14.9 0 0 1-1.4 4.5c-1.5 3-4 5.6-7.2 9a97.3 97.3 0 0 1-3.6 3.5l-.4.4a56.5 56.5 0 0 1-14.5 10.4l-.7.3c-3 1.2-5.9 1.6-8.2.3-1-.5-2-1.3-2.8-2.4l-.3-.4c-2.9-4.1-4.2-11.1-3.5-17.8l.1-.7c.6-4.6 2.2-9 4.9-12l.7-.6c10.3-9.2 13.3-15.5 14-19.8 0-1 .3-3.3 1.7-6.2.4-.9 2-4.6 7.4-8.7 5.9-4.6 13.6-7.4 19-8 1.8 0 3.4 0 4.5.4a3.4 3.4 0 0 1 1.5 1c1.4 1.7-.5 4.1-4.5 11.3zM289 109.8c-1.8 3.6-6 7.6-9.3 6.8-2-.5-3.8-3-4.5-6l-.2-.6c-.6-2.9-.4-6.3 1-9a13 13 0 0 1 7.8-6.6c1-.3 2-.2 2.9.1 1.5.6 2.6 2.1 3.2 4l.2.6c.8 3.2.5 7.4-1.1 10.7zm181.1 10.1l-.3.6c-.8 1.4-1.7 2.3-2.6 2.5-2.6.5-4-5.4-11.4-15l-.4-.4a91 91 0 0 0-3.4-4 90 90 0 0 0-8.6-8.5l-.8-.7c-4-3.4-6.2-5-5.6-6.7.2-.9 1.2-1.7 2.6-2.4.3 0 .5-.2.7-.3 4.7-1.9 13.4-2.3 20.5 1l.7.2a19.8 19.8 0 0 1 10.9 15.4l.1.7c1 6.8-.4 13.8-2.4 17.6z"/>
                </g>
                <path d="M317.4 82.7c-.1-.1-.4-.5-.8-.6-.1 0-.7-.2-.9 0-.1.2 0 .6.3.8 1.5 1.3 8.3 7.6 8 16.7-.2 7.4-5.1 13-6.7 13.6-1.6.5-2.6 0-3.9-.5-1.1-.5-2.4-1-4.3-1-6 .2-10.5 6.5-14.5 12-3 4.1-5.7 8-8 7.4-.7-.2-1-.4-2.1-1.1l-3.8-2.4a20.5 20.5 0 0 0-3.7-1.7 25.2 25.2 0 0 0-3.2-1c-.3 0-.6.2-.6.4-.1.3.1.7.6.8a21.4 21.4 0 0 1 6.3 2.5 84.7 84.7 0 0 1 3.8 2.4c1 .7 1.6 1 2.4 1.2l.7.1c2.8 0 5.5-3.7 8.6-7.9 3.8-5.3 8-11.3 13.5-11.5 1.6 0 2.8.4 3.9.9 1.3.6 2.7 1.2 4.6.5 4.9-1.6 7.5-8.7 7.6-14.6 0-7.1-3.8-12.9-7.8-17zm118.8 86h1.2c1.6 0 3 .6 4.3 1.3 2 .8 4 1.8 7.3 1.3 4.4-.7 6.8-3.6 8.8-6.1 1.7-2.2 3.2-4 5.5-4.3 4.2-.5 8.3 4.2 8.9 3.6.2-.2 0-.6-.3-1a12.5 12.5 0 0 0-1.9-1.5c-1.3-.9-2.4-1.3-2.7-1.4a8.4 8.4 0 0 0-4.1-.7c-2.7.4-4.4 2.5-6.1 4.7-2 2.5-4.2 5.2-8.3 5.8-2.9.4-4.8-.5-6.7-1.3a9.7 9.7 0 0 0-6-1.3c-5 .9-10 6.3-12.8 13.8a27.7 27.7 0 0 0-2 9.2c0 3.1.7 5.7 2.1 7.5 1.8 2.3 4.2 2.6 6.7 2.8 2.6.3 5.5.6 8.4 3.3 2.9 2.6 3.8 6 4.7 8.8.9 3.1 1.7 6 4.7 7.5a8 8 0 0 0 3.7.9 53.6 53.6 0 0 0 20.6-9c.2-.2.3-.7.1-.9-.1 0-.5 0-.8.2a49.8 49.8 0 0 1-12.6 6.7c-4.5 1.6-7.7 2.6-10.6 1.2-2.6-1.3-3.3-3.9-4.2-6.9-.9-3-1.9-6.4-5-9.3a13.9 13.9 0 0 0-9-3.5c-2.3-.2-4.4-.5-6-2.4-2.4-3.1-2.4-9.3 0-15.8 2.9-7.2 7.6-12.3 12.1-13.1zm-35.8-39.1c-5.7 0-11.4-2.8-13.3-6.9a7 7 0 0 1-.3-4.4c.2-1.4.4-2.9-.2-5-1-3.5-3.5-5.4-5.4-7-1.8-1.4-3.2-2.5-3-4.2.3-1.5 1.7-2.2 4.6-3.5 2-1 4.6-2.2 8-4.2a33.8 33.8 0 0 0 3.2-2c1-.8 1.8-1.4 3.3-2 2.7-1.2 7.4-3.2 10.7-1.5 2 1 2.5 2.8 3 4.9.4 1.7.8 3.7 2.4 5.7 2.8 3.6 7 4.5 10.5 5.2 2.8.5 5 1 5.3 2.7.3 1.7-1.2 2.9-4.7 5.5-1.8 1.3-4.1 3-7 5.5a114.8 114.8 0 0 0-7 6.5c-2.6 2.5-3.7 3.6-6.4 4.3-1.2.2-2.4.4-3.7.4zm4.6-40.7a20 20 0 0 0-10.6 4c-.8.5-1.7 1.2-3.2 2-3.5 2.1-6.2 3.4-8.1 4.3-2.7 1.2-4 1.8-4.2 3-.2 1.3 1 2.3 2.7 3.6 2 1.6 4.5 3.6 5.6 7.3.7 2.3.5 4 .2 5.3-.1 1.4-.3 2.6.3 4 2.2 4.8 10 7.7 16.3 6.1 2.5-.6 3.5-1.6 6-4a112.3 112.3 0 0 1 7-6.6l7.1-5.6c3.2-2.4 4.7-3.5 4.4-4.7-.3-1.4-2.2-1.8-4.7-2.3-3.6-.7-8-1.5-11-5.4-1.6-2-2-4.1-2.5-6-.5-2-.8-3.5-2.6-4.4-.8-.5-1.7-.6-2.7-.6z" fill="#F9E8E2"/>
                <path d="M469.5 236.4H367.4l-.2-.1-.1.1H355a.2.2 0 0 0-.2-.1l-.1.1h-37a.2.2 0 0 0 0-.1l-.2.1h-12.1l-.2-.1-.2.1h-28.9a.2.2 0 0 0-.2.3l.2.2h4.7v44.3l.1.1a.2.2 0 0 0 .2-.1v-44.3h12v44.3a.2.2 0 0 0 .4 0v-44.3H305v44.3a.2.2 0 0 0 .3 0v-44.3h12.1v44.3l.2.1.1-.1v-44.3h12.7v44.3l.1.1a.2.2 0 0 0 .2-.1v-44.3h12v44.3l.2.1.2-.1v-44.3h11.5v44.3a.2.2 0 0 0 .3 0v-44.3H367v44.3l.2.1.1-.1v-44.3h11.9v44.3l.2.1a.2.2 0 0 0 .1-.1v-44.3h12v44.3l.3.1.1-.1v-44.3h11.5v44.3l.2.1a.2.2 0 0 0 .2-.1v-44.3h12v44.3a.2.2 0 0 0 .4 0v-44.3h12.6v44.3a.2.2 0 0 0 .3 0v-44.3h12v44.3l.3.1.1-.1v-44.3H453v44.3a.2.2 0 0 0 .4 0v-44.3h12v44.3l.2.1.2-.1v-44.3h3.6c.2 0 .3 0 .3-.2 0-.1 0-.3-.2-.3z" fill="#DEDED9"/>
                <g>
                    <path fill="url(#c)" d="M.8.8h106V69H.7z" transform="translate(356.5 93.4)"/>
                    <path d="M463.2 163.3H357.3a.8.8 0 0 1-.8-.8V94.3a.8.8 0 0 1 .8-.9h106a.8.8 0 0 1 .8.9v68.2a.8.8 0 0 1-.9.8zm-105-1.6h104.2V95H358.2v66.6z" fill="#2B303E"/>
                    <path d="M386.5 151h-8.7c-.1 0-.2-.1-.2-.4s0-.5.2-.5h8.7c.1 0 .2.2.2.5s0 .5-.2.5zm7.9.1h-4.8c-.1 0-.2-.2-.2-.5s0-.4.2-.4h4.8l.2.4c0 .2 0 .5-.2.5zm-18.8 0h-13c-.1 0-.3-.2-.3-.5s.2-.5.3-.5h13c.1 0 .2.2.2.5s0 .5-.2.5z" fill="#2B303E"/>
                    <path d="M394.7 123c-.7 1.3-3.4 6-9.2 8.6-1.9.8-6.5 2.5-12.2 1.1h-.2a18.7 18.7 0 0 1-2.8-1c-5-2.2-7.5-6-8.2-7v-22.3h32.5l.1 20.5z" fill="#31455A"/>
                    <path d="M394.7 123c-.7 1.3-3.4 6-9.2 8.6-1.9.8-6.5 2.5-12.2 1.1h-.2a18.7 18.7 0 0 1-2.8-1 504 504 0 0 0 7.6-14.8 484.8 484.8 0 0 0 6.9-14.4h9.8l.1 20.4z" fill="#2B303E"/>
                    <path d="M387.9 109.7c-1.7 0-2.8-1-4-2-1-1-1.9-1.8-3.1-1.8-1.6 0-3 1.3-4.6 3.7h-.3v-.3c1.5-2.5 3.1-3.8 4.8-3.9 1.5 0 2.6 1 3.6 2 1 .8 2 1.8 3.5 1.8s3-.9 4.5-2.8h.3c.1 0 .2.2 0 .3-1.5 2-3.1 3-4.7 3zm-12.2 10.9c-.8 0-1.5-.6-2-1-.5-.5-1-1-1.5-.9-.7 0-1.5.6-2.2 1.8h-.3c-.1 0-.2-.2-.1-.3.8-1.3 1.7-2 2.5-2s1.4.5 2 1c.5.4 1 .9 1.6.9.7 0 1.4-.5 2.2-1.4h.3c.1.1.1.3 0 .4-.8 1-1.6 1.5-2.5 1.5z" fill="#E6E3F2"/>
                    <g transform="translate(365.6 105)" fill="#E6E3F2">
                        <circle cx="25.1" cy="10" r="1"/>
                        <circle cx=".6" cy=".6" r="1"/>
                        <circle cx="22.2" cy="1.3" r="1"/>
                        <circle cx="7.1" cy="22" r="1"/>
                        <circle cx="17.3" cy="18.7" r="1"/>
                        <circle cx="15.5" cy="5.5" r="1"/>
                    </g>
                    <path fill="#2B303E" d="M370.6 143.6l3.5-2.5 1.1 1.6-3.5 2.5z"/>
                    <path d="M379 140.8l-1.8-2.5-4.8 3.3 1.8 2.6 1.2-1-5.1 9.5.2.2a.2.2 0 0 0 .3-.2c.1-.4 3.2-6 5.4-10l3 10.4.2.2.2-.3-3-10.6 2.4-1.6z" fill="#31455A"/>
                    <path fill="#2B303E" d="M382.1 139.5l-3.8 2.7-2.7-3.8 3.9-2.6 2.6 3.7z"/>
                    <path d="M382.7 137.2a2.3 2.3 0 0 1-1.6 2.9 2.4 2.4 0 0 1-1.5-.1 2.3 2.3 0 0 1-1.3-1.5 2.3 2.3 0 0 1 1.6-2.9h1.5a2.4 2.4 0 0 1 1.3 1.6z" fill="#EBBB5C"/>
                    <path d="M381.3 135.7l-.3 4.4a2.4 2.4 0 0 1-1.4-.1l.3-4.4a2.3 2.3 0 0 1 1.4 0z" fill="#E6E3F2" opacity=".5"/>
                    <path d="M394.7 154.8h-32.4a.3.3 0 0 1-.3-.2v-52c0-.2.1-.3.3-.3h32.4c.2 0 .3.1.3.3v52a.3.3 0 0 1-.3.2zm-32.2-.5h32v-51.5h-32v51.5zm43.2-52.3h52.7v35.6h-52.7z" fill="#2B303E"/>
                    <path d="M458.4 121v16.6h-52.7V112c6.2 2.7 14.8 7.1 24.3 4 7-2.5 9.9-7.4 14.9-5.9 5 1.6 5.2 7.5 12.4 10.5l1.1.4z" fill="#31455A"/>
                    <path d="M444.5 114.2l1.5-.6-1.5-.6-.4-2.3-.4 2.3-1.5.6 1.5.6.4 2.3.4-2.3zm9 18.5l1.4-.5-1.4-.6-.3-2-.3 2-1.4.6 1.4.5.3 2 .3-2zm-40-22.5l2.7-1-2.7-1-.6-4.2-.7 4.1-2.7 1.1 2.7 1 .7 4.2.6-4.2z" fill="#E6E3F2" opacity=".8"/>
                    <path d="M458.4 116.5l-3.4.6a28 28 0 0 0-8.6 3.1c-2 1.1-3.9 2.1-7.6 2.7-4 .8-7 .5-9.7.2-3.4-.3-6.3-.6-10.3 1.3-1.3.6-2.2 1.2-3 1.8-1 .7-1.8 1.3-3.5 1.8-2 .6-4.2.7-6.6.3v.7a16.6 16.6 0 0 0 6.8-.4c1.8-.5 2.7-1.1 3.7-1.9a16.7 16.7 0 0 1 12.8-3c2.7.4 5.8.6 10 0 3.8-.8 5.7-1.8 7.8-2.9 2-1 4.2-2.2 8.4-3a53.1 53.1 0 0 1 3.3-.6v-.7z" fill="#E6E3F2"/>
                    <g transform="translate(405.7 105.9)">
                        <circle fill="#6F3E43" cx="40.8" cy="4" r="3.9"/>
                        <circle fill="#E6E3F2" cx="35.3" cy="22.4" r="2.5"/>
                        <path d="M21.1 31.7H0V14.3a18.3 18.3 0 0 1 3.3-.4c9.9 0 17.8 8 17.8 17.8z" fill="#EBBB5C"/>
                    </g>
                    <g transform="translate(404.9 142)">
                        <path d="M53 12.9H.3a.3.3 0 0 1-.3-.3V.4C0 .2.1 0 .3 0H53c.1 0 .2.1.2.3v12.2a.3.3 0 0 1-.2.3zM.5 12.4h52.2V.6H.5v11.8z" fill="#2B303E"/>
                        <path d="M24.9 6.5a3.8 3.8 0 0 1-3.8 3.8H21a3.8 3.8 0 0 1-3.7-3.8 3.8 3.8 0 0 1 3.8-3.8c2.1 0 3.8 1.7 3.8 3.8z" fill="#2B303E"/>
                        <path d="M24.9 6.5a3.8 3.8 0 0 1-3.8 3.8H21a8.6 8.6 0 0 0 1-3.8 8.3 8.3 0 0 0-.8-3.8c2 0 3.7 1.7 3.7 3.8z" fill="#EBBB5C"/>
                        <circle fill="#EBBB5C" cx="44.9" cy="6.5" r="3.8"/>
                        <g transform="translate(29 2.7)">
                            <circle fill="#2B303E" cx="3.8" cy="3.8" r="3.8"/>
                            <path d="M7.6 3.8a3.8 3.8 0 0 1-3.8 3.8V.1a3.8 3.8 0 0 1 3.8 3.7z" fill="#EBBB5C"/>
                        </g>
                        <path d="M13 6.5a3.8 3.8 0 0 1-3.8 3.8 3.8 3.8 0 0 1-3.8-3.8 3.8 3.8 0 0 1 3.8-3.8h.2a3.8 3.8 0 0 1 3.5 3.8z" fill="#2B303E"/>
                        <path d="M13 6.5a3.8 3.8 0 0 1-3.8 3.8A5 5 0 0 0 11 6.7a5 5 0 0 0-1.7-4 3.8 3.8 0 0 1 3.5 3.8z" fill="#EBBB5C"/>
                    </g>
                    <path d="M95.5.8L92 8.6 90.3 12l-.2.4-3 6.4-.3.6-2.3 4.9-2 4.1-1 2.1-3.7 8-.4.8-1.3 2.8-.9 2-.6 1.2-3.7 8-2.1 4.5-2.7 5.7-1.4 3-1.2 2.4H51.7l.4-.9 1.4-3 2.8-6 .2-.3 1-2.3 2.2-4.6a1532 1532 0 0 1 3.6-7.7l1-2.4 1.6-3.2.3-.7 2.8-6L75.4 18l3.5-7.4 1-2.1A1273.5 1273.5 0 0 1 83.5.8h12z" fill="url(#d)" opacity=".1" transform="translate(356.5 93.4)"/>
                    <path d="M71.1.8l-3.6 7.8-6.8 14.3-2.1 4.5-3.5 7.3-.4.8-4 8.6-11.9 25H28.6l3.6-8 6-12.7 11-23.6a681 681 0 0 0 2.4-5.1l1.7-3.8.2-.3 3.3-7L60.4.9H71z" fill="url(#e)" opacity=".1" transform="translate(356.5 93.4)"/>
                    <path d="M39 .8l-1.4 2.8L35 9v.1l-1 2.2-2.3 4.7-4.6 9.7-2 4.5-3.5 7.3-.4.7-.7 1.6-3.4 7.1-6.7 14.3L6.6 69H.8v-9.6l3.9-8.3 1-2.2 5.6-12 4.4-9.4 2.4-5 1.7-3.8.2-.4 2.6-5.6.6-1.4 1-2.2.1-.1L27 3.6 28.2.8h10.7z" fill="url(#f)" opacity=".1" transform="translate(356.5 93.4)"/>
                    <g transform="translate(331.8 119.4)">
                        <path d="M31.3 19v4l-1.5 10.8a89.3 89.3 0 0 1-2.1-3.8 94.8 94.8 0 0 1-3.7-7.6l-.6-7.1 2.8 1.4.3.2a54.3 54.3 0 0 0 4.8 2z" fill="#C88F80"/>
                        <path d="M31.3 19v3.4a6.8 6.8 0 0 1-2.7-.8 7.4 7.4 0 0 1-3.6-5.1l1.2.2.3.2a59.4 59.4 0 0 0 4.8 2z" fill="#2B303E" opacity=".3"/>
                        <path d="M32.5 20c-2 1.4-9-2.4-9.9-8-.4-2.9.7-6.8 3.5-8 1.8-.7 4.4-.3 5.7 1.2l.3.4a8.1 8.1 0 0 1 1.4 3.7c.5 3.4.1 6.3-.2 8.1-.3 1.6-.4 2.4-.8 2.7z" fill="#C88F80"/>
                        <path d="M31 17.8c-.3 0-.6 0-1-.2a2.3 2.3 0 0 1-1.1-1.2v-.1h.2c0 .2.4.8 1 1 .5.3.9.3 1.2.2l.1.1v.1H31z" fill="#0E0F0F"/>
                        <g transform="translate(27.7 11.4)" fill="#0E0F0F">
                            <circle cx=".5" cy=".6" r="1"/>
                            <circle cx="4.8" cy=".5" r="1"/>
                        </g>
                        <path d="M25.7 10.3L28.4 9l.2.4-2.7 1.2zm7.4-.6l-2.3-.1V9l2.3.1z" fill="#0E0F0F"/>
                        <path d="M30.3 11l.5 1.4c.6 1.4 1.2 2.1 1 2.3-.1.1-.5 0-1.2-.1l-1-.4a25.4 25.4 0 0 1 .6-3.2h.1z" fill="#AF7266"/>
                        <path d="M33.8 11h-3a1.3 1.3 0 0 0-.8-.2 1.3 1.3 0 0 0-.6.2h-3.6l-3 1.3-.1.2.2.1 2.8-1.2c.1.4.4 1.1 1.2 1.5.2.1.7.4 1.2.4.4 0 .7-.1 1-.3.8-.6.7-1.7.7-1.8h.2a.8.8 0 0 1 .4 0c0 .2-.1 1 .5 1.5.4.3.8.4 1.1.4a2 2 0 0 0 1-.2c.7-.4 1-1 1-1.7l-.2-.2zm-4.9 1.7c-.6.5-1.5 0-1.8 0-.7-.4-1-1-1-1.4h3.4c0 .3 0 1-.6 1.4zm4-.1c-.5.2-1.2.3-1.8-.1-.4-.4-.4-1-.4-1.2h3a1.5 1.5 0 0 1-.8 1.3z" fill="#2B303E"/>
                        <path d="M24.7 7.8c1.2-1 3.8 1 5.3-.3.5-.4.8-1.2 1.5-1.2.5 0 .7.4 1.2.2.6-.1 1.1-1 .9-1.8-.1-.6-.6-.6-.8-1.1-.2-.8.6-1.2.4-1.9-.2-.7-1.5-1-2.4-1-1 .3-1.8 1.2-2 1 0 0 .7-.7.5-1.1-.3-.5-1.8-.8-2.9-.1-1.2.7-1.3 2.4-1.8 2.3-.3 0-.2-1-.7-1.2-.6-.3-1.6.5-2 1.5-.7 1.3-.3 2.8-.5 2.8-.1 0-.2-.9-.8-1a1 1 0 0 0-.6 0c-.9.5-.3 3.6.5 6.1.6 2 2.2 6.2 3.2 6 .9-.1.9-4 .9-4.9 0-2.8-.5-3.7.1-4.3z" fill="#0E0F0F"/>
                        <path d="M25.2 13a1.7 1.7 0 0 1-3.3-.2 1.6 1.6 0 0 1 .4-1.2 1.6 1.6 0 0 1 1.1-.6 1.7 1.7 0 0 1 1.8 1.5v.6z" fill="#C88F80"/>
                        <path d="M25.2 13l-2.9-1.4a1.6 1.6 0 0 1 1.1-.6 1.7 1.7 0 0 1 1.8 1.5v.6z" fill="#522D37" opacity=".1"/>
                        <path d="M35.3 37.6l-.1 5.4a539.4 539.4 0 0 1-.8 19.3l-.3 3.8H19c.6-9 .9-18.6.7-28.8a292 292 0 0 0-.7-14.2l1.2-.3h.2c.2 0 .6-.2 1.4-.2l2.3-.2 5.3 10 2-10 1.3.3 1.2.2h.1l.4.1 1 .4v14.2z" fill="#E6E3F2"/>
                        <path d="M34.3 23L33 26.8l-3.2 8.3L20 22.8h.2c.2 0 .6-.2 1.4-.2l2.3-.2 5.3 10 1.5-7.6.5-2.4 1.3.3 1.2.2h.1l.4.1z" fill="#BBD0DB"/>
                        <circle fill="#2B303E" cx="30.5" cy="52.2" r="1"/>
                        <circle fill="#2B303E" cx="30.5" cy="56.7" r="1"/>
                        <circle fill="#2B303E" cx="30.5" cy="61.3" r="1"/>
                        <path d="M35.2 43a75.8 75.8 0 0 1 .1 17.9 90.3 90.3 0 0 1-.4 3.3l-14.5 1-1.3-2.2 16-20zM34.3 23L33 26.8l-2-2 .4-2.4 1.2.3c.3 0 .7 0 1.3.2h.1l.4.1z" fill="#2B303E" opacity=".1"/>
                        <path d="M14.7 142.7l-1.3 1.5-1.1 1.3a1074.9 1074.9 0 0 0-5.7-3.5l.2-.2v-.1l.6-.8.2-.3.3-.4v-.1l1.5-2.1 1.5-2.1 3.7 2.8-.1.1-.8 1.3-.5.7.5.6.5.6.5.7zm33.4-1.4l-1.9 3.2-5.6-.5v-5.8l4.8-.3v1.3l.1.6v.7l2.6.8z" fill="#C88F80"/>
                        <path d="M45.5 139.2l-4.9 1.4v-2.4l4.8-.3v1.3zm-31-.4l-.8 1.3-3.5.3-2.5.2.2-.4.1-.1 1.5-2.1 5 .8z" fill="#2B303E" opacity=".3"/>
                        <path d="M14.7 142.7l-1.3 1.5-1.6.5-5-2.9v-.1l.6-.8.3-.3.2-.4.1-.1 1.2.1.7.1h.3l1.7.3.9.2h.5l.4.6.5.6.5.7zm33.4-1.4l-1.9 3.2-5.6-.5v-2l1.3-.6.7-.3 2-.9.7-.3.2-.1v.7l2.6.8z" fill="#E6E3F2"/>
                        <g transform="translate(7.3 139.8)" fill="#BBD0DB">
                            <path d="M.8.8a.4.4 0 0 1-.4.4.5.5 0 0 1-.3-.1L.6.4l.2.4z"/>
                            <circle cx="1.4" cy="2.3" r="1"/>
                            <path d="M2.7.6a.4.4 0 0 1-.5.4.4.4 0 0 1-.4-.4.5.5 0 0 1 0-.2h.8v.2z"/>
                            <circle cx="3.4" cy="1.8" r="1"/>
                            <path d="M5.5 1a.4.4 0 0 1-.4.3.4.4 0 0 1-.5-.4V.8l.9.1z"/>
                            <circle cx="4.9" cy="3.1" r="1"/>
                            <circle cx="33.7" cy="2.6" r="1"/>
                            <circle cx="35.5" cy="3.6" r="1"/>
                            <circle cx="36.5" cy="1.9" r="1"/>
                            <path d="M35.3 1.2a.4.4 0 0 1-.7.3 6.5 6.5 0 0 0 .7-.3zm2.8-1a.4.4 0 0 1-.4.5.4.4 0 0 1-.4-.4c.3 0 .5-.2.7-.3a.4.4 0 0 1 .1.3z"/>
                            <circle cx="39" cy="2.1" r="1"/>
                            <circle cx="38.4" cy="3.7" r="1"/>
                            <path d="M6.9 2.2a.4.4 0 0 1-.8-.3.4.4 0 0 1 .3-.3l.5.6z"/>
                        </g>
                        <path d="M21.5 150a9 9 0 0 1-4.8.3c-1-.2-1.7-.6-4.8-2.5l-.5-.3a145.8 145.8 0 0 1-3.7-2.4l.4-.8-1 .5-2.4-1.3a.7.7 0 0 1-.2-.3c0-.6.8-1.3 2-1.8l.7-.2 4.6 2.4 3-.9 1.5 1.5.3.3.8.9h.2l.1.3c.5.5.7.8 1.2 1.1 1 .8 1.6.8 2.1 1.5.3.3.5.8.5 1.7z" fill="#0E0F0F"/>
                        <path d="M16.6 144.5l-1.3.7a.2.2 0 0 1-.2 0 .2.2 0 0 1 0-.3l1.2-.7.3.3zm1.1 1.2l-.7 1h-.2a.2.2 0 0 1-.1 0v-.3l.7-1 .2.1.1.2z" fill="#BBD0DB"/>
                        <path d="M57 146.3c0 .6-6 .5-8.1.5h-4.1l-1.6-.1-.3-.9-.6 1h-2.8a.7.7 0 0 1-.3-.2c-.4-.6.2-1.8 1.4-3h.7l4.5-.2 2.1-2.1 2.3.7.5.2.5.2.9.4.4.1 1.5.6c1.3.4 1.8.4 2.4 1 .4.3.7 1.1.7 1.8z" fill="#0E0F0F"/>
                        <path d="M50.7 142.2l-.8 1.1a.2.2 0 0 1-.2.1h-.2v-.3l.7-1.1.5.2zm1.8.7l-.7 1.1a.3.3 0 0 1-.2.1h-.1v-.3l.6-1 .4.1z" fill="#BBD0DB"/>
                        <path d="M3.2 4l.4-.9-1 .5L.3 2.4A.7.7 0 0 1 0 2C0 1.4.8.7 2.1.2l4.8 6.1A244.7 244.7 0 0 1 3.2 4z" fill="url(#g)" opacity=".1" transform="translate(4.5 141.2)"/>
                        <path d="M40.3 5.6l-1.5-.1-.4-.8-.6.9H35a.7.7 0 0 1-.3-.2c-.4-.5.2-1.7 1.4-3h.7l3.5 3.2z" fill="url(#h)" opacity=".1" transform="translate(4.5 141.2)"/>
                        <g>
                            <path d="M47.4 138.6l-8.3.6-12.6-56.8-.5-2.2c0 7.5-.4 16-1.6 25a187.7 187.7 0 0 1-8.2 34.8l-9-.7h-.9a99.2 99.2 0 0 0 5.6-38.7c-.3-3.4-1.3-13.6-.5-27.4.2-3.3.5-6 .7-7.6l4.7-.4L39 63.8l1 8.8 7.5 66z" fill="#2B303E"/>
                            <path d="M39.5 68.5H11.8V68h27.6v.4zm-.3-2.7H12v-.2l1.4-.1H39v.3z" fill="#E6E3F2" opacity=".1"/>
                            <path d="M14.3 65.4V140h-.4V65.4h.4zm-3 26.6v.3l.1 2.3v.4l.2 1.7V70.8v.3l-.2 2v.7l-.1 2.3V92zm.3 23.7v24h-.3v-21.4l.2-2.1v-.3a.8.8 0 0 0 .1-.2zM8.9 130v9.5h-.3v-8.2L9 130zm7.8-64.7v74.4h-.3V65.3h.3zm2.4-.2V131l-.2.5v.3l-.2.4V65h.4zm2.4-.1v56.5l-.3 1V65h.3zm2.5-.2V108.2l-.3 1.6v-45h.3zm2.5-.2v17.8l-.1-.7a2.3 2.3 0 0 1-.1-.3l-.1-.5V64.7h.3zm2.3-.1v28.4a7 7 0 0 0-.1-.6V92l-.2-.6v-27h.3zm2.5-.2v39.8a24.5 24.5 0 0 0-.2-1.2l-.1-.3V64.3h.3zm2.7-.2V116l-.4-1.3V64.2h.4zm2.5-.1v63.3l-.2-.5v-.4l-.2-.6V64h.4zm2.4-.2v74.7c0-.5-.2-1-.3-1.4V63.8h.3zm2.4 20.5v54.8h-.4V81.4v.3l.3 2.3v.3zm2.4 22V139h-.3v-35.5l.2 1.8v.4l.1.7zm2.4 20.5v12h-.4v-14.9.2a108.3 108.3 0 0 0 .4 2.7z" fill="#E6E3F2" opacity=".1"/>
                            <path d="M39.8 71.1H11.6v-.3h28.1v.3zm.3 2.7H11.4v-.4H40v.4zm.3 2.6H11.3v-.3h29v.3zm.3 2.7H11.2v-.4h29.4v.4zM26 81.4v.3H11.1v-.3h15zm15 .3H26.4a2.3 2.3 0 0 1-.1-.3h14.6v.3zM26 84v.4H11V84H26zm15.3.4H26.9V84h14.3v.4zm-15.4 2.3v.3H11.1v-.3H26zm15.7.3h-14a2.3 2.3 0 0 1-.1-.3h14v.3zm-15.8 2.3v.4H11.2v-.4h14.6zm16 .4H28.2v-.4h13.7v.4zM25.8 92v.3H11.2V92h14.4zm16.5.3H28.7V92H42v.3zm-16.7 2.3v.4h-14v-.4h14zm17 .4H29.3v-.4h13.1v.4zm-17.2 2.3v.3H11.6v-.3h13.6zm17.5.3h-13a2.3 2.3 0 0 1 0-.3h13v.3zM25 100v.4H11.9v-.4h13zm18 .4H30.6l-.1-.4H43v.4zm-18.3 2.3v.3H12v-.3h12.6zm18.7.3H31l-.1-.3h12.3v.3zm-19 2.3v.4H12v-.4h12.3zm19.3.4h-12l-.1-.4h12v.4zM24 107.9v.3H12v-.3H24zm20 .3H32.2v-.3h11.7v.3zm-20.4 2.3v.4H12v-.4h11.6zm20.7.4H32.8a2.3 2.3 0 0 1 0-.4h11.4v.4zM23 113.2a2.3 2.3 0 0 1 0 .3H11.7v-.3h11.3zm21.5.3H33.4v-.3h11.1v.3zm-22 2.3a2.3 2.3 0 0 1 0 .4h-11v-.4h11zm22.3.4H34v-.1-.3h10.8v.4zM22 118.5v.3H11l.1-.3h10.9zm23 .3H34.7l-.1-.3h10.6v.3zm-23.6 2.3v.4H10.8v-.4h10.7zm24 .4H35.2l-.1-.4h10.3v.4zm-24.6 2.3v.3H10.2v-.3H21zm24.8.3h-10v-.3h10V124zm-25.5 2.3v.4H9.7v-.4h10.6zm25.8.4h-9.7v-.4H46v.4zM19.6 129l-.1.3H9v-.3h10.5zm26.7.3H37a2.3 2.3 0 0 1 0-.3h9.4v.3zm-27.4 2v.3H8.4v-.3H19zm27.7.3h-9.2v-.3h9.2v.3zm-28.5 2.4v.3H7.7v-.3h10.3zm28.8.3H38v-.3h8.9v.3zm-29.6 2.3v.4H7v-.4h10.3zm30 .4h-8.7v-.1a1.7 1.7 0 0 0 0-.3h8.6v.4zm-30.6 2.3v.3h-5.4l-2.4-.2h-.3l-.7-.1h8.8z" fill="#E6E3F2" opacity=".1"/>
                            <path d="M1.1 75.5h-1a99.2 99.2 0 0 0 5.7-38.6c-.3-3.5-1.4-13.7-.5-27.5.2-3.3.5-5.9.7-7.6l4.7-.4c1.3 12 3.6 43.4-9.6 74.1z" fill="url(#i)" opacity=".1" transform="translate(6.1 63.8)"/>
                            <path d="M47.4 138.6l-8.3.6-12.6-56.8 13.4-9.8 7.5 66z" fill="#212734" opacity=".3"/>
                            <path d="M38 137.9l.8 1.4 9.3-.7.3-1.7-10.4 1zm-31.7-.2v1.5l10.3 1.4.6-1.4-11-1.5z" fill="#212734"/>
                        </g>
                        <g>
                            <path d="M22.5 71.1L9 67.8l.2-1.5.2-1.6.8-7.5c.7-7.5 1-13.6 1.2-18.7 0 0 .2-10.2 4.5-13.6a10.6 10.6 0 0 1 6-2.3l.5 26.7V51c.2 6.2.2 12.4.2 18.6V71zm20-2.2a43.5 43.5 0 0 1-4.3 1l-1.8.3-2.4.2v-1a947.7 947.7 0 0 0-.2-46.5h.1a8.9 8.9 0 0 1 2.5 1.2c4.1 2.6 5.2 12 5.4 15.9l.1 1.6v3.2l.6 23.1v1z" fill="#6F3E43"/>
                            <path d="M22.5 71.1L9 67.8l.2-1.5 13.4 3.2V71zm20-2.2a47 47 0 0 1-4.3 1 43.9 43.9 0 0 1-4.2.5v-1l8.6-1.5v1z" fill="#EBBB5C"/>
                            <path d="M20.5 51S20 61.4 9.3 64.7l.8-7.5c3.7-1.7 7.8-3.9 10.4-6.2zm-5-6.7c-1 1.6-1.8 3-3.2 3.1-1.4 0-2.9-1.6-3-3-.4-3.6 6.4-7.2 7.8-6.1 1 .9-1 4.7-1.7 6z" fill="#522D37" opacity=".3"/>
                        </g>
                        <g>
                            <path d="M26.5 38.6l-.3.8-.7 1.2c-.1.3-.3.7-.3 1.2v.8c-.6.6-1.3 1.2-1.5 1-.1 0 0-.3 0-.8.2-1.7 0-2 .3-2.5.2-.2.2 0 1-.7.8-.6 1.4-1.2 1.5-1z" fill="#C88F80"/>
                            <path d="M26.2 39.4l-.7 1.2c-.1.3-.3.7-.3 1.2-.3.3-.6.4-.6-.2 0-.8.9-1.7 1.6-2.2z" fill="#2B303E" opacity=".1"/>
                        </g>
                        <g>
                            <path d="M13.6 4l-1 4.4-2 9.2-.3 1.5c-.1.5-.6 1-1.1.8l-8.1-1-.3-.2H.7C0 18.2 0 17.4 0 17L3 3.7 3.6 1c.2-.6.7-1 1.2-.8l2.5.7 5.4 1.4c.1 0 .3 0 .4.2 0 0 .5.4.5 1v.4z" fill="url(#j)" transform="translate(23.7 31)"/>
                        </g>
                        <g>
                            <path d="M71 29c.1.2-1.3 2-3.2 2.3h-.7l-2 .4-1.4.2-1.7.3-1.3.3a5 5 0 0 1-.7-.3 7.3 7.3 0 0 1-.5-.3v-.1l.3-1 .3-.6.5-.5.2-.1a27 27 0 0 1 4-2.5s.6-.2.7 0c.2.3-2 2-1.6 2.5.2.4 1.8 0 2 0 .2-.1.8-.3 1.4-.8.7-.4 1.6-1 1.9-1.8 0-.2.1-.6.5-.8 0 0 .2-.2.4-.1v.2l.4-.2c.3.2-.4 2-1.8 3.2.4-.3 1-.7 1.2-1.2 0-.1.3-.6.8-.8.1 0 .3-.2.4-.1.2.1-.2 1-1 2l.5-.3h.4z" fill="#C88F80"/>
                            <path d="M65.1 31.7l-1.4.2-1.7.3-2.2-1.3.3-.7.5-.5.2-.2 4.3 2.2z" fill="#2B303E" opacity=".1"/>
                            <path d="M64.5 31.8l-.2.8a25.8 25.8 0 0 1-3.3 9.5c-1.3 2-2.8 4.7-5 6.4-1 .8-2.2 1.3-3.5 1.6a9 9 0 0 1-5.3-1 15 15 0 0 1-5.2-4.3 19.2 19.2 0 0 1-2.4-4l-.8-2.4-5-15.5a11 11 0 0 1 6 2.1c4.3 3.4 3.5 8.8 9.1 15 1.5 1.6 2.2 1.9 2.8 2 3.7.2 7.3-9 7.8-10.3l.2-.4.3-1a24 24 0 0 1 4.5 1.5z" fill="#6F3E43"/>
                            <path d="M55.4 48.2l.2-.3v-.1h-.2l-.1.3-1.1-.3.1-.5H54v.4a8 8 0 0 0-1-.2v-.3L53 47c-.1 0 0 0 0 0l-.1.4a7.7 7.7 0 0 0-1.2-.1V47h-.2v.4a5 5 0 0 0-1 0v-.2h-.2v.3a6.4 6.4 0 0 0-1 .3v-.2H49l.1.2a5 5 0 0 0-.8.5l-.2-.2s0-.1-.1 0l.1.2-1 .9c1.7.8 3.6 1.2 5.3.9 1.3-.2 2.5-.8 3.5-1.6a2.6 2.6 0 0 0-.6-.3zm9-16.4v.8l-4.8-1.3.4-1a24.4 24.4 0 0 1 4.5 1.5z" fill="#EBBB5C"/>
                            <path d="M64.5 31.8l-.2.8a25.8 25.8 0 0 1-3.3 9.5c-1.3 2-2.8 4.7-5 6.4-1 .8-2.2 1.3-3.5 1.6a9 9 0 0 1-5.3-1 15 15 0 0 1-5.2-4.3l.6 23.1v1l-1.9.5a44.6 44.6 0 0 1-4.3.8l2-31 .4-.8c.7-.9 1.7 0 3 1.6 2.3 2.3 5.7 6 11 5.3C61 44 63 33.9 63.5 31.4l1 .4z" fill="#522D37" opacity=".3"/>
                        </g>
                        <g>
                            <path d="M32 41.1s.1.4-1.2 1.5l-1.5 1.2-3.6 2.4-1.3 1-1.9 1.2v-3.6l1-1.2a21.8 21.8 0 0 1 1.4-1.5l.9-.8.9-.7c2.2-2 3.6-3 4-2.8l.1.2c.2.4-1.1 1.1-2.8 2.8l-.5.5a12.3 12.3 0 0 0 2.3-1.7c.5-.4 1.3-1.2 1.7-1l.1.1c.1.3-.3.8-.7 1.1.4-.2.7-.4.9-.3l.1.1c.2.3-.2.7-1.1 1.5L29 42.6l-.7.5c.7-.3 1.2-.7 1.6-1 0 0 1.6-1.3 1.8-1.2l.2.2z" fill="#C88F80"/>
                            <path d="M25.8 46.2l-1.4 1-1-3.6 2.4 2.6z" fill="#2B303E" opacity=".1"/>
                            <path d="M24.7 47l-.9.8a37.5 37.5 0 0 1-10.5 7.9c-2.8 1.4-6 3-8.5 3.3a5.9 5.9 0 0 1-1.4 0c-.7 0-1.4-.2-2-.7-1.1-.9-1.4-2.6-1.2-5l.1-.8c.4-2.4 1.2-5.3 2.3-8.6l1.7-5.3a31.6 31.6 0 0 1 7.4-12 15.6 15.6 0 0 1 4.6-2.8 20 20 0 0 1 5.4-1.2l.2 11.9a54.3 54.3 0 0 0-3 2.5 46.4 46.4 0 0 0-3.7 4c-2 2.4-4.6 5.4-4 6.3.4.4 1.6.4 5.4-1.2l6.3-3 .8-.5 1 4.3z" fill="#6F3E43"/>
                            <path d="M5 58.4h-.4a8.9 8.9 0 0 0-.3-1h.3v-.2l-.4.1a7.6 7.6 0 0 0-.7-1.2L4 56v-.1c0-.1 0 0-.1 0l-.4.2a7 7 0 0 0-.7-.9L3 55a.1.1 0 0 0 0-.2l-.4.3-.2-.2-.6-.5.3-.4v-.1h-.2l-.2.4a9.6 9.6 0 0 0-.8-.5v-.3c.1 0 0-.1 0-.1l-.2.3a3.6 3.6 0 0 0-.5-.2c-.2 2.3.1 4 1.3 5 .5.4 1.2.6 2 .7h1.3l-.1-.5h.2v-.2zM24.7 47l-.9 1-.9-5c.3 0 .5-.2.8-.3l1 4.3z" fill="#EBBB5C"/>
                            <path d="M16.3 1.3a137 137 0 0 0-13.7 20c.5-1.6 1-3.4 1.7-5.2A31.7 31.7 0 0 1 11.8 4c1.4-1.2 3-2.1 4.5-2.7z" fill="url(#l)" opacity=".1" transform="translate(0 22.5)"/>
                        </g>
                    </g>
                    <path d="M301 168.4l-.2-8.2c.6.4 2.1-1.3 2.1-1.3-.2 0-1.6.1-2 .5l-.2-6.3c1.6-.2-.2-4.4-.3-4.7 0-.2-1.5 4-.2 4.7v3.7c-.6-.8-1.9-1.6-1.9-1.6s1 3.3 2 3v2.9c-.4-.5-2.2-.4-2.2-.3 0 0 1.8 1.5 2.3.8l.2 13.3c-.9 0-1.8.2-2 .7l-.6-4c.7.3 1.6-2 1.6-2s-1.3.5-1.8 1.1a611 611 0 0 0-.8-4.9c1 .3 2.5-2.6 2.7-3s-2.1.8-3 1.7l-.6-4.3-.4-2.2-.6-3.8c1.1.4 2.7-3.1 2.8-3.2-.1 0-2.3.8-3 1.8a126.7 126.7 0 0 0-.3-1.4c1.4-.4 1-5.2 1-5.2-.4.4-3.4 4.5-1.5 5.1l1 6.3c-.4-.3-1.7.3-1.7.3s1.5.7 1.8.2v.1l.5 2.6 1.2 7.4c-.8-.5-2.5-.8-2.8-.8s2.1 2.7 3 2l.7 3.9c-.6-.8-3.4.5-3.4.5s3.2 1.2 3.5 0a1387.2 1387.2 0 0 0 3 17v2a.2.2 0 0 0 .3.2.3.3 0 0 0 .2-.3l-.3-14.1v-.7-1.8a14.1 14.1 0 0 0 1.6-.9l-1.6-.2-.1-5.8c.6.7 2.1-1 2.7-1.5 0-.2.2-.2.2-.2s-2.3.1-3 .9zm-.4 7.8v2.5l.2 9.7-2-12c.3.3 1 .1 1.8-.1z" fill="#3D6658"/>
                    <path d="M306.6 163l-.2 1.4c.6-.1 2 1.2 2 1.2-.3 0-1.6 0-2.2-.4l-1 5.6c1-.4 3.2.2 3.2.2s-2.5 1.4-3.3 1a309.3 309.3 0 0 1-.6 3.1l-.3 2.1-1.7 10.2a.3.3 0 0 1-.3.3.3.3 0 0 1-.2-.3 586.6 586.6 0 0 1 2-12.4c-1 .4-1.8-2.9-1.8-2.9s1.5 1 2 1.8l1.8-10 .7-4.2c-1 .3-2.9-1.4-3-1.5-.1-.1 2.4-.1 3.1.5l.7-4.2c-1 .1-2.9-2.2-2.9-2.2.3 0 2.3.3 3.1.9l.1-.4a423.7 423.7 0 0 0 .8-4.5c-1.8-.2-1.4-5.6-1.4-5.6v.1c.4.5 3.8 4.7 1.9 5.4l-.5 2.6c1-.5 3.1-.5 3.4-.5s-2.6 2.5-3.6 2l-.8 4.3c1-.5 3.1 0 3.5 0s-2.9 1.9-3.7 1.2c0 .6-.2 1.1-.3 1.6 0 1.2-.3 2.4-.5 3.5z" fill="#3D6658"/>
                    <path d="M309.1 148.2a368.6 368.6 0 0 0-1.9-5.4c.5.5 3.8 4.7 2 5.4zm3 2s-2.6 2.6-3.6 2l3.6-2zm-1 6.4s-2.8 2-3.6 1.2l3.6-1.2zm-4.5 3.1c-.9.3-2.8-1.5-2.9-1.6l3 1.6zm1.8 5.9c-.7-.2-1.7-.6-2-1.2.6-.1 2 1.2 2 1.2zm0 5.4l-3.1-.2c1-.4 3 .2 3 .2zm-4.3 4c-1 .4-1.9-2.9-1.9-2.9l1.9 3zm3.7-21.8l-.1.6c-1.6-.5-2.5-1-3-1.5.2 0 2.2.3 3 .9zm-7 0l-.4-4.8c.1.3 1.9 4.5.3 4.7zm-.5 5c-1 .3-2-3-2-3 .4.7 1 1.7 2 3zm2.6.7s-1.5 1.7-2 1.3c.2-.5 1.4-1 2-1.3zm-2.5 2.7c-.5.7-2.4-.9-2.4-.9l2.4.9zm3.5 5.8l-.2.2c-.7.4-2 1-2.7.8.6-.8 2.9-1 2.9-1zm-8.4-21.2l-1.4 5.1c-1.9-.7 1-4.7 1.4-5.1zm2.3 4.7c-1.9 2.2-3 1.9-3 1.9a9 9 0 0 1 3-1.9zm-2.6 7.1c-.3.5-1.8-.1-1.8-.1s1.8-.2 1.8.1zm4.5 4.9c-.2.3-1.7 3.2-2.7 2.9.5-1.3 2-2.5 2.7-3zm-2.6 6.4c-.9.8-3-2-3-2 1.3.7 3 1.9 3 2zm2.5.2s-.9 1.4-1.8 1.2c.5-.6 1.8-1.2 1.8-1.2zm-5.2 4.3s2.7-1.3 3.4-.6c.1.5-3.4.6-3.4.6zm8.3 1.4a9.1 9.1 0 0 1-1.4 1c-.7.5-1.2.8-1.8.7l-.7-.5 3.9-1.2z" fill="#182828"/>
                    <path d="M307.2 159.4l-.6 3.5-.6 1 .7-4.2.5-.3zm-11.1.8l-.4.6-.4-2.6.4-.3.4 2.3zm8.4 15c0 .7-.2 1.4-.3 2l-.5.3.4-2.4h.4z" fill="#2B303E" opacity=".3"/>
                    <path d="M306.2 186v14h-9.8v-14a5 5 0 0 1 2.4-4.2v-2h5v2a4.9 4.9 0 0 1 2.4 4.2z" fill="#BBD0DB"/>
                    <path d="M303.8 179.8v2h-5v-2h5zm2.4 18.4v1.8h-9.8v-1.8h9.8z" fill="#2B303E"/>
                    <path d="M306.2 186v14h-2.5l-1.6-20.2h1.7v2a4.9 4.9 0 0 1 2.4 4.2z" fill="#2B303E" opacity=".1"/>
                    <g>
                        <path d="M324.8 199.5v.3h-20a4.2 4.2 0 0 1-.6-2.3 4.1 4.1 0 0 1 .6-2.1h20a7.5 7.5 0 0 0-.2 2.3c0 .7 0 1.3.2 1.8z" fill="#FFF"/>
                        <path d="M325.5 199.7a.3.3 0 0 1-.2.3h-20.5l-.2-.1a4.2 4.2 0 0 1-.7-2.5 4.3 4.3 0 0 1 .7-2.3H325.2c.1 0 .3 0 .3.2a.3.3 0 0 1-.3.2H305a3.8 3.8 0 0 0-.6 2 3.9 3.9 0 0 0 .6 2h20.4a.3.3 0 0 1 .2.2z" fill="#4E8B76"/>
                        <path d="M323.8 196.3h-18.4v-.1h18.4v.2zm0 .4h-18.4v-.1c0-.1 0 0 0 0h18.4zm0 .3h-18.4v-.2h18.4v.2zm0 .3h-18.4v-.1h18.4v.1zm0 .4h-18.4v-.1c0-.1 0 0 0 0h18.4zm0 .3h-18.4v-.2h18.4v.2zm0 .3h-18.4v-.1h18.4v.1zm0 .4h-18.4v-.1-.1h18.4v.2zm0 .3h-18.4v-.2h18.4v.2z" fill="#2F2B33" opacity=".2"/>
                        <path d="M325.5 199.7a.3.3 0 0 1-.2.3h-11v-.2a1.4 1.4 0 0 0 0-.3v-.2l.1-.4v-.4-.2-.2-.2-.3l-.1-.3v-.2-.2a1.2 1.2 0 0 0-.2-.2.2.2 0 0 0 0-.1v-.3l-.3-.5v-.3l-.1-.2-.2-.3h11.7c.1 0 .3.1.3.3a.3.3 0 0 1-.3.2h-.4a7.5 7.5 0 0 0-.3 2.2c0 .7.2 1.3.3 1.8h.5a.3.3 0 0 1 .2.2z" fill="#2B303E" opacity=".1"/>
                    </g>
                    <path d="M23.9 124.8H0l-.1.6v2c0 .3 0 .6.2.6h1.4l10 24.6L1.4 178a.3.3 0 0 0 .1.4.3.3 0 0 0 .2 0 .4.4 0 0 0 .3-.1L12 153.5l10.1 24.8.4.2a.3.3 0 0 0 .3-.5l-10.5-25.4L22.5 128h1.4l.1-.6v-2l-.1-.6zm-11.9 27L2.3 128h19.5L12 151.7z" fill="url(#m)" transform="translate(277 93.4)"/>
                    <g>
                        <path d="M378.4 200.7v2.5c0 .5-.3.8-.7.8h-4.6v72.5a2.3 2.3 0 0 1 1.6 2.2 2.3 2.3 0 0 1-2.3 2.3 2.3 2.3 0 0 1-2.3-2.3c0-1 .8-2 1.8-2.3V204h-89v36.8l-.1 35.7a2.3 2.3 0 0 1 1.6 2.2 2.3 2.3 0 0 1-2.3 2.4 2.3 2.3 0 0 1-2.3-2.4c0-1 .8-2 1.8-2.2V204h-3.5c-.3 0-.6-.3-.6-.7v-2.6c0-.4.3-.7.6-.7h99.6c.4 0 .7.3.7.7z" fill="#EBBB5C"/>
                        <path d="M101 .9v2.5c0 .5-.4.8-.8.8h-4.6v72.5a2.3 2.3 0 0 1 1.7 2.2 2.3 2.3 0 0 1-2.4 2.3 2.3 2.3 0 0 1-2.3-2.3c0-1.1.8-2 1.8-2.3V4.2H43l-1-4h58.4c.3 0 .6.2.6.7z" fill="url(#n)" opacity=".5" transform="translate(277.5 199.8)"/>
                    </g>
                </g>
            </g>
            <g mask="url(#b)">
                <g transform="translate(21 17)">
                    <rect fill="#000" opacity=".7" style="mix-blend-mode:darken" x="389" y="5" width="29" height="5" rx="2"/>
                    <rect fill="#FFF" opacity=".6" x="353" y="5" width="29" height="5" rx="2"/>
                    <rect fill="#FFF" opacity=".6" x="317" y="5" width="29" height="5" rx="2"/>
                    <rect fill="#FFF" opacity=".6" x="281" y="5" width="29" height="5" rx="2"/>
                    <rect fill="#000" opacity=".7" style="mix-blend-mode:darken" x="425" width="39" height="15" rx="2"/>
                    <path d="M6 0h11v1.8a8 8 0 0 1-2.4 5.7l-7.2 7.2A8 8 0 0 1 1.8 17H0V6a6 6 0 0 1 6-6z" fill="#FFF"/>
                    <circle fill="#4D4D4D" cx="11" cy="11" r="6"/>
                </g>
            </g>
            <rect fill-opacity=".2" fill="#323232" mask="url(#b)" x="34" y="331" width="134" height="39" rx="5"/>
            <rect fill-opacity=".2" fill="#323232" mask="url(#b)" x="340" y="330" width="134" height="39" rx="5"/>
            <rect fill-opacity=".2" fill="#323232" mask="url(#b)" x="187" y="331" width="134" height="39" rx="5"/>
        </g>
        <g transform="translate(553 253)">
            <use fill="#000" filter="url(#o)" xlink:href="#p"/>
            <use fill="#FFF" xlink:href="#p"/>
        </g>
        <g transform="translate(566 260)" fill-rule="nonzero">
            <path d="M0 53l28.9-16.3h28.8l28.9-14.2 28.8-3.7 29-15.8v45a5 5 0 0 1-5 5H0z" fill="url(#q)"/>
            <circle stroke="#FFF" stroke-width="2" fill="#87939E" cx="27.3" cy="37" r="3"/>
            <circle stroke="#FFF" stroke-width="2" fill="#87939E" cx="56" cy="36" r="3"/>
            <circle stroke="#FFF" stroke-width="2" fill="#87939E" cx="85.5" cy="22" r="3"/>
            <circle stroke="#FFF" stroke-width="2" fill="#87939E" cx="114.2" cy="18" r="3"/>
            <circle stroke="#FFF" stroke-width="2" fill="#87939E" cx="144.6" cy="2" r="3"/>
        </g>
        <path d="M566.5 271.3l2-6.1h1.5l-2.8 7.8H566l-2.8-7.8h1.5l2 6.1zm6.5 1.7h-1.3v-7.8h1.3v7.8zm6.5-2a1 1 0 0 0-.4-.8c-.2-.2-.6-.4-1.3-.6l-1.5-.6c-.7-.5-1-1-1-1.8 0-.6.2-1.1.7-1.5.5-.4 1.2-.6 2-.6.6 0 1 0 1.5.3l1 .8c.2.4.4.8.4 1.3h-1.4c0-.4-.1-.8-.4-1-.2-.2-.6-.3-1-.3-.5 0-.9 0-1.1.2a1 1 0 0 0-.4.8c0 .3.2.6.4.8l1.3.5a6 6 0 0 1 1.5.6l.8.8c.2.3.3.7.3 1 0 .7-.3 1.2-.8 1.6-.5.4-1.2.6-2 .6a3.8 3.8 0 0 1-1.6-.3c-.5-.2-.8-.5-1-.9a2.2 2.2 0 0 1-.5-1.3h1.4c0 .5.1.8.4 1 .3.3.7.4 1.3.4.5 0 .8 0 1-.3a1 1 0 0 0 .4-.7zm4.7 2h-1.4v-7.8h1.4v7.8zm7.9-6.7h-2.5v6.7h-1.3v-6.7h-2.5v-1.1h6.3v1zm7.8 3c0 .8-.2 1.4-.4 2a3 3 0 0 1-2.9 1.8 3.1 3.1 0 0 1-1.7-.5 3 3 0 0 1-1.1-1.3c-.3-.6-.4-1.2-.4-2v-.4c0-.8.1-1.4.4-2 .3-.6.6-1 1.1-1.4.5-.3 1-.4 1.7-.4s1.2.1 1.7.4c.5.3.9.8 1.2 1.4.2.5.4 1.2.4 2v.4zm-1.4-.4c0-.9-.2-1.5-.5-2s-.8-.7-1.4-.7c-.6 0-1 .2-1.4.7-.3.5-.5 1.1-.5 2v.4c0 .9.2 1.5.5 2 .4.5.8.7 1.4.7.6 0 1.1-.2 1.4-.7.3-.5.5-1.1.5-2v-.4zm6.3 1h-1.5v3.1h-1.4v-7.8h2.8c.9 0 1.6.2 2 .6.6.4.8 1 .8 1.7 0 .6-.1 1-.4 1.4-.2.3-.6.6-1 .8l1.7 3.2v.1h-1.4l-1.6-3zm-1.5-1h1.4c.4 0 .8-.1 1-.3.3-.3.4-.6.4-1s0-.7-.3-1c-.3-.2-.6-.3-1-.3h-1.5v2.6zm10.3 2a1 1 0 0 0-.4-.7l-1.3-.6-1.5-.6c-.7-.5-1-1-1-1.8 0-.6.2-1.1.7-1.5.5-.4 1.2-.6 2-.6.5 0 1 0 1.5.3l1 .8c.2.4.3.8.3 1.3h-1.3c0-.4-.2-.8-.4-1-.3-.2-.6-.3-1.1-.3-.5 0-.8 0-1 .2a1 1 0 0 0-.4.8c0 .3.1.6.4.8l1.3.5a6 6 0 0 1 1.5.6l.8.8.2 1c0 .7-.2 1.2-.7 1.6s-1.2.6-2 .6a3.8 3.8 0 0 1-1.6-.3c-.5-.2-.9-.5-1.1-.9a2.2 2.2 0 0 1-.4-1.3h1.3c0 .5.2.8.5 1 .3.3.7.4 1.3.4.4 0 .8 0 1-.3a1 1 0 0 0 .4-.7z" fill="#493636" fill-rule="nonzero" opacity=".4"/>
        <g filter="url(#r)" transform="translate(0 58)">
            <rect fill="#24292E" width="38" height="121" rx="3"/>
            <path d="M19 90a9 9 0 1 0 0 18 9 9 0 0 0 0-18zm-.9 16.2a7.3 7.3 0 0 1-6.1-9l4.3 4.4v1c0 1 .8 1.8 1.8 1.8v1.8zm6.2-1.8c-.2-.7-.9-1.3-1.7-1.3h-.9v-2.7a1 1 0 0 0-.9-1h-5.4v-1.8h1.8a1 1 0 0 0 .9-.9V95h1.8c1 0 1.8-.8 1.8-1.8v-.4a7.3 7.3 0 0 1 4.5 6.8c0 1.9-.7 3.6-1.9 4.9zm1-46.1l-8.7-9a1 1 0 0 0-1.5 0 1.1 1.1 0 0 0 0 1.5l1.8 1.9-5.4 5.6a1.6 1.6 0 0 0 0 2.3l5.8 6a1.6 1.6 0 0 0 1 .4 1.6 1.6 0 0 0 1.2-.5l5.8-6a1.6 1.6 0 0 0 0-2.2zm-12 1.1l5-5.2 5.1 5.2h-10zM28 61s-2.1 2.4-2.1 3.8c0 1.2 1 2.2 2 2.2 1.3 0 2.2-1 2.2-2.2 0-1.4-2.1-3.8-2.1-3.8zM11 25v2.7a.4.4 0 0 0 .4.4h2.7a.4.4 0 0 0 .4-.1l9.7-9.7-3.4-3.4-9.7 9.7a.4.4 0 0 0-.1.4zm15.7-9.3a.9.9 0 0 0 0-1.3l-2-2a.9.9 0 0 0-1.3 0l-1.6 1.6 3.3 3.3 1.6-1.6z" fill="#FFF" fill-rule="nonzero"/>
        </g>
        <g filter="url(#s)" transform="translate(58 57)">
            <mask id="u" fill="#fff">
                <use xlink:href="#t"/>
            </mask>
            <use fill="#FFF" xlink:href="#t"/>
            <rect fill="#D7D9DA" mask="url(#u)" x="26" y="33" width="33" height="23" rx="3"/>
            <path d="M28.5 18h29a1.5 1.5 0 0 1 0 3h-29a1.5 1.5 0 0 1 0-3zm5 5h19a1.5 1.5 0 0 1 0 3h-19a1.5 1.5 0 0 1 0-3z" fill="#8E959B" mask="url(#u)"/>
            <g transform="translate(0 55)">
                <mask id="w" fill="#fff">
                    <use xlink:href="#v"/>
                </mask>
                <use fill="#FFF" xlink:href="#v"/>
                <g mask="url(#w)">
                    <g transform="translate(11 17)">
                        <rect fill="#D7D9DA" y="8.2" width="13" height="1.8" rx=".9"/>
                        <rect fill="#D7D9DA" y="11.7" width="13" height="1.8" rx=".9"/>
                        <rect fill="#D7D9DA" x="1.1" y="15.2" width="10.7" height="1.8" rx=".9"/>
                        <ellipse fill="#8E959B" cx="6.5" cy="2.6" rx="2.5" ry="2.6"/>
                    </g>
                </g>
                <g mask="url(#w)">
                    <g transform="translate(36 17)">
                        <rect fill="#D7D9DA" y="8.2" width="13" height="1.8" rx=".9"/>
                        <rect fill="#D7D9DA" y="11.7" width="13" height="1.8" rx=".9"/>
                        <rect fill="#D7D9DA" x="1.1" y="15.2" width="10.7" height="1.8" rx=".9"/>
                        <ellipse fill="#8E959B" cx="6.5" cy="2.6" rx="2.5" ry="2.6"/>
                    </g>
                </g>
                <g mask="url(#w)">
                    <g transform="translate(61 17)">
                        <rect fill="#D7D9DA" y="8.2" width="13" height="1.8" rx=".9"/>
                        <rect fill="#D7D9DA" y="11.7" width="13" height="1.8" rx=".9"/>
                        <rect fill="#D7D9DA" x="1.1" y="15.2" width="10.7" height="1.8" rx=".9"/>
                        <ellipse fill="#8E959B" cx="6.5" cy="2.6" rx="2.5" ry="2.6"/>
                    </g>
                </g>
            </g>
            <g transform="translate(0 110)">
                <mask id="y" fill="#fff">
                    <use xlink:href="#x"/>
                </mask>
                <use fill="#FFF" xlink:href="#x"/>
                <g mask="url(#y)">
                    <g transform="translate(26 13)">
                        <rect fill="#D7D9DA" width="14.1" height="9" rx="3"/>
                        <g transform="translate(19.4 1.7)" fill="#8E959B">
                            <rect width="13.6" height="1.7" rx=".8"/>
                            <rect y="3.4" width="10.6" height="1.7" rx=".8"/>
                        </g>
                    </g>
                </g>
                <g mask="url(#y)">
                    <g transform="translate(27 28)">
                        <rect fill="#D7D9DA" x="18" width="14" height="9" rx="3"/>
                        <g transform="translate(0 2.3)" fill="#8E959B">
                            <rect width="13.4" height="1.7" rx=".8"/>
                            <rect y="3.4" width="10.5" height="1.7" rx=".8"/>
                        </g>
                    </g>
                </g>
            </g>
            <g transform="translate(0 165)">
                <mask id="A" fill="#fff">
                    <use xlink:href="#z"/>
                </mask>
                <use fill="#FFF" xlink:href="#z"/>
                <g mask="url(#A)">
                    <g transform="translate(23 13)">
                        <rect fill="#8E959B" width="13" height="1.8" rx=".9"/>
                        <rect fill="#8E959B" x="2.8" y="7.2" width="7.3" height="4.8" rx="2.4"/>
                        <rect fill="#D7D9DA" y="3.6" width="13" height="1.8" rx=".9"/>
                        <rect fill="#D7D9DA" x="3.4" y="15" width="9" height="1.8" rx=".9"/>
                        <rect fill="#D7D9DA" y="15" width="1.7" height="1.8" rx=".8"/>
                        <rect fill="#D7D9DA" x="3.4" y="18.6" width="9" height="1.8" rx=".9"/>
                        <rect fill="#D7D9DA" y="18.6" width="1.7" height="1.8" rx=".8"/>
                        <rect fill="#D7D9DA" x="3.4" y="22.2" width="9" height="1.8" rx=".9"/>
                        <rect fill="#D7D9DA" y="22.2" width="1.7" height="1.8" rx=".8"/>
                    </g>
                </g>
                <g mask="url(#A)">
                    <g transform="translate(49 13)">
                        <rect fill="#8E959B" width="13" height="1.8" rx=".9"/>
                        <rect fill="#8E959B" x="2.8" y="7.2" width="7.3" height="4.8" rx="2.4"/>
                        <rect fill="#D7D9DA" y="3.6" width="13" height="1.8" rx=".9"/>
                        <rect fill="#D7D9DA" x="3.4" y="15" width="9" height="1.8" rx=".9"/>
                        <rect fill="#D7D9DA" y="15" width="1.7" height="1.8" rx=".8"/>
                        <rect fill="#D7D9DA" x="3.4" y="18.6" width="9" height="1.8" rx=".9"/>
                        <rect fill="#D7D9DA" y="18.6" width="1.7" height="1.8" rx=".8"/>
                        <rect fill="#D7D9DA" x="3.4" y="22.2" width="9" height="1.8" rx=".9"/>
                        <rect fill="#D7D9DA" y="22.2" width="1.7" height="1.8" rx=".8"/>
                    </g>
                </g>
            </g>
            <g transform="translate(0 275)">
                <mask id="C" fill="#fff">
                    <use xlink:href="#B"/>
                </mask>
                <use fill="#FFF" xlink:href="#B"/>
                <rect fill="#D7D9DA" mask="url(#C)" x="16" y="16" width="16" height="8" rx="4"/>
                <rect fill="#D7D9DA" mask="url(#C)" x="35" y="16" width="16" height="8" rx="4"/>
                <rect fill="#D7D9DA" mask="url(#C)" x="53" y="16" width="16" height="8" rx="4"/>
                <rect fill="#D7D9DA" mask="url(#C)" x="25" y="26" width="16" height="8" rx="4"/>
                <rect fill="#D7D9DA" mask="url(#C)" x="44" y="26" width="16" height="8" rx="4"/>
            </g>
            <g transform="translate(0 220)">
                <mask id="E" fill="#fff">
                    <use xlink:href="#D"/>
                </mask>
                <use fill="#FFF" xlink:href="#D"/>
                <g mask="url(#E)">
                    <path d="M45.9 33.4H58a1 1 0 0 1 1 1V37a1 1 0 0 1-1 1H45.9a1 1 0 0 1-1-1v-2.6a1 1 0 0 1 1-1z" fill="#8E959B"/>
                    <path d="M27.7 12h22a1.7 1.7 0 0 1 0 3.5h-22a1.7 1.7 0 1 1 0-3.5zm.3 5.8h29a2 2 0 0 1 2 2V29a2 2 0 0 1-2 2H28a2 2 0 0 1-2-2v-9.3a2 2 0 0 1 2-2z" fill="#D7D9DA"/>
                </g>
            </g>
        </g>
        <g filter="url(#F)" transform="translate(213)">
            <path d="M2 0h126a3 3 0 0 1 3 3v30a3 3 0 0 1-3 3H3a3 3 0 0 1-3-3V2a2 2 0 0 1 2-2z" fill="#24292E"/>
            <path d="M20 11a7 7 0 0 0 0 14 1.2 1.2 0 0 0 .9-2 1.2 1.2 0 0 1-.3-.7c0-.7.5-1.2 1.1-1.2h1.4a3.9 3.9 0 0 0 3.9-3.9c0-3.4-3.1-6.2-7-6.2zm-4.3 7a1.2 1.2 0 0 1-1.1-1.2 1.2 1.2 0 1 1 2.3 0c0 .7-.5 1.2-1.2 1.2zm2.4-3.1a1.2 1.2 0 0 1-1.2-1.2A1.2 1.2 0 1 1 18 15zm3.8 0a1.2 1.2 0 0 1-1.1-1.2 1.2 1.2 0 1 1 2.3 0c0 .7-.5 1.2-1.2 1.2zm2.4 3.1a1.2 1.2 0 0 1-1.2-1.2 1.2 1.2 0 1 1 1.2 1.2z" fill="#FFF" fill-rule="nonzero"/>
            <g transform="rotate(45 49.3 131.1)">
                <ellipse fill="#EB8A67" cx="10.2" cy="10.3" rx="10.2" ry="10.3"/>
                <path d="M10.2 20.5V0C4.6 0 0 4.6 0 10.3s4.6 10.2 10.2 10.2z" fill="#D16C48"/>
            </g>
            <g transform="rotate(45 34.6 96.6)">
                <ellipse fill="#6C63FF" cx="10.2" cy="10.3" rx="10.2" ry="10.3"/>
                <path d="M10.2 20.5V0C4.6 0 0 4.6 0 10.3s4.6 10.2 10.2 10.2z" fill="#5148DD"/>
            </g>
            <g transform="rotate(45 20 61.6)">
                <ellipse fill="#22BC66" cx="10.2" cy="10.3" rx="10.2" ry="10.3"/>
                <path d="M10.2 20.5V0C4.6 0 0 4.6 0 10.3s4.6 10.2 10.2 10.2z" fill="#159C51"/>
            </g>
        </g>
    </g>
</svg>