<?xml version="1.0" encoding="utf-8"?>
<!-- Generator: Adobe Illustrator 15.0.0, SVG Export Plug-In . SVG Version: 6.00 Build 0)  -->
<!DOCTYPE svg PUBLIC "-//W3C//DTD SVG 1.1//EN" "http://www.w3.org/Graphics/SVG/1.1/DTD/svg11.dtd">
<svg version="1.1" id="Layer_1" xmlns="http://www.w3.org/2000/svg" xmlns:xlink="http://www.w3.org/1999/xlink" x="0px" y="0px"
	 width="620px" height="550px" viewBox="0 0 620 550" enable-background="new 0 0 620 550" xml:space="preserve">
<path opacity="0.15" fill="#00AEEF" enable-background="new    " d="M342.704,453.212C219.505,443.837,72.579,348.376,80.06,250.085
	c7.48-98.294,149.777-189.798,272.979-180.423c123.201,9.378,194.121,193.071,186.641,291.362
	C532.198,459.318,465.907,462.59,342.704,453.212z"/>
<g>
	<path fill="none" stroke="#535461" stroke-width="2" stroke-miterlimit="10" d="M534.496,353.139
		c-2.48,2.281-4.747,4.785-6.771,7.479c-4.229,5.707-6.489,12.631-6.447,19.732c-0.008,16.93-14.458,33.063-14.458,33.063"/>
	<path fill="#00AEEF" d="M534.577,342.471c1.094-2.299,3.844-3.275,6.144-2.182c2.299,1.094,3.275,3.844,2.183,6.143
		c-1.096,2.299-8.429,6.988-8.429,6.988S533.482,344.77,534.577,342.471L534.577,342.471z"/>
	<path fill="#00AEEF" d="M525.605,346.766c2.525-0.33,4.841,1.447,5.172,3.971c0.331,2.527-3.28,10.449-3.28,10.449
		s-5.532-6.723-5.861-9.248C521.304,349.412,523.081,347.098,525.605,346.766z"/>
	<path fill="#00AEEF" d="M511.578,373.844c-1.561-2.014-1.194-4.91,0.819-6.471c2.012-1.561,4.909-1.193,6.47,0.818
		s2.445,10.676,2.445,10.676s-8.171-3.012-9.731-5.023H511.578z"/>
	<path fill="#00AEEF" d="M507.708,392.133c-1.199-2.246-0.349-5.039,1.898-6.238c2.246-1.197,5.039-0.348,6.238,1.898
		c1.198,2.248,0.604,10.932,0.604,10.932S508.905,394.383,507.708,392.133L507.708,392.133z"/>
	<path fill="#00AEEF" d="M536.238,365.715c2.393-0.875,3.622-3.525,2.746-5.918c-0.875-2.391-3.524-3.621-5.916-2.746
		c-2.406,0.828-7.925,7.555-7.925,7.555s8.474,1.996,10.887,1.18C536.101,365.764,536.17,365.74,536.238,365.715z"/>
	<path fill="#00AEEF" d="M531.227,387.133c2.462-0.113,4.399-2.141,4.4-4.607c0-2.547-2.064-4.611-4.612-4.613
		c-2.547,0.059-9.821,4.84-9.821,4.84s7.485,4.439,10.03,4.381H531.227z"/>
	<path fill="#00AEEF" d="M523.715,407.211c2.5-0.488,4.13-2.908,3.644-5.408c-0.488-2.498-2.909-4.129-5.408-3.643
		c-2.5,0.49-8.864,6.43-8.864,6.43S521.216,407.699,523.715,407.211L523.715,407.211z"/>
	<path opacity="0.25" enable-background="new    " d="M534.577,342.471c1.094-2.299,3.844-3.275,6.144-2.182
		c2.299,1.094,3.275,3.844,2.183,6.143c-1.096,2.299-8.429,6.988-8.429,6.988S533.482,344.77,534.577,342.471L534.577,342.471z"/>
	<path opacity="0.25" enable-background="new    " d="M525.605,346.766c2.525-0.33,4.841,1.447,5.172,3.971
		c0.331,2.527-3.28,10.449-3.28,10.449s-5.532-6.723-5.861-9.248C521.304,349.412,523.081,347.098,525.605,346.766z"/>
	<path opacity="0.25" enable-background="new    " d="M511.578,373.844c-1.561-2.014-1.194-4.91,0.819-6.471
		c2.012-1.561,4.909-1.193,6.47,0.818s2.445,10.676,2.445,10.676s-8.171-3.012-9.731-5.023H511.578z"/>
	<path opacity="0.25" enable-background="new    " d="M507.708,392.133c-1.199-2.246-0.349-5.039,1.898-6.238
		c2.246-1.197,5.039-0.348,6.238,1.898c1.198,2.248,0.604,10.932,0.604,10.932S508.905,394.383,507.708,392.133L507.708,392.133z"/>
	<path opacity="0.25" enable-background="new    " d="M536.238,365.715c2.393-0.875,3.622-3.525,2.746-5.918
		c-0.875-2.391-3.524-3.621-5.916-2.746c-2.406,0.828-7.925,7.555-7.925,7.555s8.474,1.996,10.887,1.18
		C536.101,365.764,536.17,365.74,536.238,365.715z"/>
	<path opacity="0.25" enable-background="new    " d="M531.227,387.133c2.462-0.113,4.399-2.141,4.4-4.607
		c0-2.547-2.064-4.611-4.612-4.613c-2.547,0.059-9.821,4.84-9.821,4.84s7.485,4.439,10.03,4.381H531.227z"/>
	<path opacity="0.25" enable-background="new    " d="M523.715,407.211c2.5-0.488,4.13-2.908,3.644-5.408
		c-0.488-2.498-2.909-4.129-5.408-3.643c-2.5,0.49-8.864,6.43-8.864,6.43S521.216,407.699,523.715,407.211L523.715,407.211z"/>
	<path fill="none" stroke="#535461" stroke-width="2" stroke-miterlimit="10" d="M556.71,368.832
		c-3.189,1.078-6.273,2.445-9.214,4.086c-6.182,3.502-11.06,8.914-13.902,15.426c-6.867,15.477-26.616,24.369-26.616,24.369"/>
	<path fill="#00AEEF" d="M561.106,359.105c0.063-0.057,0.125-0.109,0.19-0.162c1.977-1.605,4.88-1.305,6.484,0.674
		c1.604,1.977,1.304,4.879-0.674,6.482c-1.932,1.66-10.535,2.975-10.535,2.975s2.597-8.311,4.529-9.969H561.106z"/>
	<path fill="#00AEEF" d="M545.438,362.512c0.02-0.072,0.041-0.145,0.064-0.217c0.779-2.424,3.378-3.758,5.803-2.979
		c2.425,0.781,3.759,3.379,2.979,5.805c-0.72,2.441-7.229,8.219-7.229,8.219s-2.328-8.383-1.618-10.83L545.438,362.512z"/>
	<path fill="#00AEEF" d="M527.366,378.469c-0.611-2.471,0.896-4.973,3.367-5.584s4.973,0.896,5.584,3.369
		c0.607,2.471-2.091,10.746-2.091,10.746S527.979,380.939,527.366,378.469L527.366,378.469z"/>
	<path fill="#00AEEF" d="M516.415,393.611c-0.14-2.482,1.715-4.629,4.191-4.852c2.537-0.229,4.779,1.643,5.008,4.18
		c0.172,2.545-3.883,10.252-3.883,10.252s-5.132-7.033-5.318-9.57L516.415,393.611z"/>
	<path fill="#00AEEF" d="M552.983,381.008c2.467,0.172,4.63-1.633,4.904-4.09c0.283-2.531-1.54-4.813-4.072-5.096
		c-2.535-0.23-10.307,3.697-10.307,3.697S550.445,380.777,552.983,381.008L552.983,381.008z"/>
	<path fill="#00AEEF" d="M545.977,396.076c0.978-2.352-0.136-5.051-2.487-6.027c-2.351-0.979-10.938,0.445-10.938,0.445
		s5.049,7.09,7.399,8.068C542.301,399.539,544.999,398.426,545.977,396.076z"/>
	<path fill="#00AEEF" d="M530.357,410.486c0.613-2.473-0.894-4.975-3.366-5.588c-2.482-0.564-10.708,2.287-10.708,2.287
		s6.175,6.137,8.657,6.705C527.367,414.396,529.761,412.893,530.357,410.486z"/>
</g>
<g>
	<path fill="none" stroke="#535461" stroke-width="2" stroke-miterlimit="10" d="M203.703,161.591c0,0-19.343-21.596-19.354-44.26
		c0.057-9.506-2.971-18.775-8.631-26.413c-2.709-3.606-5.744-6.958-9.064-10.011"/>
	<path fill="#00AEEF" d="M166.546,66.628c1.466,3.078,0.138,14.656,0.138,14.656s-9.816-6.277-11.282-9.355
		c-1.464-3.077-0.156-6.759,2.921-8.223C161.4,62.242,165.082,63.55,166.546,66.628L166.546,66.628z"/>
	<path fill="#00AEEF" d="M183.87,79.3c-0.44,3.379-7.847,12.378-7.847,12.378s-4.834-10.604-4.391-13.985
		c0.443-3.379,3.543-5.76,6.923-5.315C181.935,72.82,184.314,75.92,183.87,79.3z"/>
	<path fill="#00AEEF" d="M197.329,108.624c-2.09,2.691-13.026,6.723-13.026,6.723s1.184-11.598,3.273-14.289
		c2.089-2.693,5.967-3.185,8.66-1.096c2.695,2.089,3.186,5.967,1.097,8.66L197.329,108.624z"/>
	<path fill="#00AEEF" d="M202.514,133.106c-1.604,3.01-11.701,8.822-11.701,8.822s-0.795-11.623,0.809-14.633
		c1.605-3.007,5.344-4.145,8.352-2.541C202.98,126.36,204.118,130.099,202.514,133.106L202.514,133.106z"/>
	<path fill="#00AEEF" d="M164.601,97.836c3.23,1.093,14.573-1.579,14.573-1.579s-7.387-9.004-10.607-10.112
		c-3.202-1.171-6.748,0.475-7.92,3.677s0.474,6.748,3.676,7.92C164.414,97.774,164.507,97.807,164.601,97.836z"/>
	<path fill="#00AEEF" d="M171.035,126.411c3.406,0.078,13.427-5.864,13.427-5.864s-9.737-6.399-13.147-6.478
		c-3.41,0.001-6.174,2.766-6.174,6.176c0.002,3.3,2.596,6.015,5.891,6.166H171.035z"/>
	<path fill="#00AEEF" d="M181.086,153.288c3.346,0.654,14.229-3.508,14.229-3.508s-8.52-7.951-11.866-8.605
		c-3.345-0.652-6.586,1.529-7.239,4.875C175.558,149.396,177.74,152.636,181.086,153.288L181.086,153.288z"/>
	<path opacity="0.25" enable-background="new    " d="M166.546,66.628c1.466,3.078,0.138,14.656,0.138,14.656
		s-9.816-6.277-11.282-9.355c-1.464-3.077-0.156-6.759,2.921-8.223C161.4,62.242,165.082,63.55,166.546,66.628L166.546,66.628z"/>
	<path opacity="0.25" enable-background="new    " d="M183.87,79.3c-0.44,3.379-7.847,12.378-7.847,12.378
		s-4.834-10.604-4.391-13.985c0.443-3.379,3.543-5.76,6.923-5.315C181.935,72.82,184.314,75.92,183.87,79.3z"/>
	<path opacity="0.25" enable-background="new    " d="M197.329,108.624c-2.09,2.691-13.026,6.723-13.026,6.723
		s1.184-11.598,3.273-14.289c2.089-2.693,5.967-3.185,8.66-1.096c2.695,2.089,3.186,5.967,1.097,8.66L197.329,108.624z"/>
	<path opacity="0.25" enable-background="new    " d="M202.514,133.106c-1.604,3.01-11.701,8.822-11.701,8.822
		s-0.795-11.623,0.809-14.633c1.605-3.007,5.344-4.145,8.352-2.541C202.98,126.36,204.118,130.099,202.514,133.106L202.514,133.106z
		"/>
	<path opacity="0.25" enable-background="new    " d="M164.601,97.836c3.23,1.093,14.573-1.579,14.573-1.579
		s-7.387-9.004-10.607-10.112c-3.202-1.171-6.748,0.475-7.92,3.677s0.474,6.748,3.676,7.92
		C164.414,97.774,164.507,97.807,164.601,97.836z"/>
	<path opacity="0.25" enable-background="new    " d="M171.035,126.411c3.406,0.078,13.427-5.864,13.427-5.864
		s-9.737-6.399-13.147-6.478c-3.41,0.001-6.174,2.766-6.174,6.176c0.002,3.3,2.596,6.015,5.891,6.166H171.035z"/>
	<path opacity="0.25" enable-background="new    " d="M181.086,153.288c3.346,0.654,14.229-3.508,14.229-3.508
		s-8.52-7.951-11.866-8.605c-3.345-0.652-6.586,1.529-7.239,4.875C175.558,149.396,177.74,152.636,181.086,153.288L181.086,153.288z
		"/>
	<path fill="none" stroke="#535461" stroke-width="2" stroke-miterlimit="10" d="M203.491,160.653c0,0-26.437-11.904-35.629-32.622
		c-3.806-8.714-10.335-15.959-18.609-20.646c-3.937-2.196-8.064-4.027-12.335-5.472"/>
	<path fill="#00AEEF" d="M131.041,88.894c2.586,2.219,6.063,13.345,6.063,13.345s-11.517-1.761-14.103-3.98
		c-2.646-2.147-3.05-6.034-0.901-8.68s6.033-3.05,8.68-0.901c0.087,0.07,0.172,0.143,0.255,0.219L131.041,88.894z"/>
	<path fill="#00AEEF" d="M152.012,93.452c0.95,3.276-2.166,14.498-2.166,14.498s-8.715-7.736-9.678-11.004
		c-1.045-3.246,0.74-6.725,3.986-7.769s6.725,0.741,7.769,3.986c0.03,0.097,0.06,0.192,0.086,0.29L152.012,93.452z"/>
	<path fill="#00AEEF" d="M176.199,114.813c-0.82,3.308-9.184,11.422-9.184,11.422s-3.611-11.079-2.799-14.388
		c0.818-3.31,4.166-5.327,7.475-4.508S177.018,111.506,176.199,114.813L176.199,114.813z"/>
	<path fill="#00AEEF" d="M190.861,135.097c-0.25,3.396-7.12,12.813-7.12,12.813s-5.428-10.316-5.197-13.725
		c0.306-3.395,3.308-5.9,6.704-5.595c3.314,0.298,5.797,3.171,5.61,6.495L190.861,135.097z"/>
	<path fill="#00AEEF" d="M141.907,118.213c3.397-0.309,12.683-7.348,12.683-7.348s-10.402-5.255-13.796-4.948
		c-3.39,0.379-5.829,3.432-5.452,6.821C135.71,116.027,138.605,118.442,141.907,118.213L141.907,118.213z"/>
	<path fill="#00AEEF" d="M159.354,141.712c3.146-1.311,9.905-10.802,9.905-10.802s-11.496-1.905-14.643-0.595
		c-3.147,1.309-4.638,4.92-3.329,8.068C152.596,141.53,156.207,143.021,159.354,141.712z"/>
	<path fill="#00AEEF" d="M179.446,162.231c3.323-0.762,11.589-8.979,11.589-8.979s-11.012-3.816-14.334-3.061
		c-3.311,0.822-5.327,4.172-4.506,7.48C172.994,160.894,176.197,162.907,179.446,162.231z"/>
</g>
<path fill="#FFD503" d="M243.253,76.99c24.82-54.042,68.379-55.468,96.739-3.242l208.481,383.641
	c28.404,52.256,8.771,72.004-43.604,43.891l-102.533-54.961c-52.401-28.174-137.61-27.234-189.364,2.037l-95.278,53.75
	c-51.775,29.271-73.794,8.928-48.99-45.051L243.253,76.99z"/>
<path opacity="0.25" fill="#00AEEF" enable-background="new    " d="M56.229,116.326c0,0,36.512-2.199,32.211,23.381
	c0,0,0.85,4.52-3.25,6.58c0,0-0.061-1.9-3.74-1.26c-1.32,0.221-2.664,0.289-4,0.199c-1.791-0.121-3.494-0.822-4.85-2l0,0
	c0,0-10.26-4.24-14.25-21c0,0-2.951-3.66-2.83-4.6l6.16,2.631c0,0-2.111,4.449-0.451,8.139c0,0,0.201-8,1.381-7.789
	c0.24,0,3.199,1.539,3.199,1.539s-3.619,7.75-0.889,13.371c0,0-1-9.541,2-12.811l4.34,2.529c0,0-4.23,8-1.361,14.531
	c0,0-0.738-10,2.271-13.91l3.93,3.07c0,0-4,7.879-1.551,13.289c0,0,0.32-11.65,2.4-12.529c0,0,3.439,3,4,4.279
	c0,0-2.73,5.721-1,8.74c0,0,1-7.77,1.891-7.801c0,0,3.42,5.141,3.779,8.67c-0.184-3.262-1.217-6.42-3-9.16
	c1.975,0.371,3.797,1.313,5.24,2.711c0,0-0.529-3.631-6.09-4c0,0-2.83-3.9-3.59-4.141c0,0,5.529-0.459,8.879,1
	c0,0-2.949-3.43-9.889-1.869l-3.84-3.061c0,0,7.279-1,10.359,0.1c0,0-3.551-3-11.4-0.818l-4.23-2.531c0,0,6.201-1.34,9.9-0.85
	c0,0-3.9-2.109-11.141,0.17l-3-1.35c0,0,4.551-0.9,5.881-1s1.4-0.51,1.4-0.51c-2.881-0.48-5.836-0.152-8.541,0.949
	C62.559,119.217,56.129,116.736,56.229,116.326z"/>
<path opacity="0.25" fill="#00AEEF" enable-background="new    " d="M571.343,409.351c0,0,13.693,33.903-11.926,37.967
	c0,0-4.012,2.247-7.3-1.004c0,0,1.774-0.67-0.005-3.953c-0.627-1.171-1.111-2.411-1.443-3.698c-0.469-1.738-0.35-3.58,0.335-5.246
	l0,0c0,0,0.743-11.075,15.417-20.181c0,0,2.533-3.96,3.457-4.144l-0.533,6.674c0,0-4.878-0.58-7.854,2.162
	c0,0,7.621-2.344,7.824-1.166c0.038,0.242-0.441,3.525-0.441,3.525s-8.497-0.967-12.959,3.41c0,0,8.705-4.019,12.784-2.161
	l-1.022,4.921c0,0-8.932-1.467-14.199,3.327c0,0,9.251-3.885,13.904-2.269l-1.658,4.697c0,0-8.733-1.26-13.088,2.759
	c0,0,11.146-3.407,12.642-1.707c0,0-1.784,4.226-2.802,5.12c0,0-6.299-0.773-8.658,1.78c0,0,7.691-1.485,7.994-0.692
	c0,0-3.785,4.884-7.01,6.337c3.035-1.194,5.703-3.165,7.74-5.713c0.273,1.991-0.041,4.019-0.901,5.835c0,0,3.272-1.663,1.808-7.029
	c0,0,2.793-3.922,2.781-4.717c0,0,2.199,5.09,1.872,8.703c0,0,2.319-3.888-1.37-9.984l1.781-4.694c0,0,3.256,6.575,3.191,9.851
	c0,0,1.748-4.333-2.842-11.07l1.045-4.809c0,0,3.246,5.458,3.965,9.113c0,0,0.75-4.363-3.762-10.529l0.33-3.299
	c0,0,2.292,4.036,2.844,5.251c0.555,1.216,0.935,1.167,0.935,1.167c-0.462-2.884-1.714-5.581-3.616-7.797
	C570.603,416.088,570.923,409.367,571.343,409.351z"/>
<path opacity="0.25" fill="#00AEEF" enable-background="new    " d="M538.346,126.568c0,0-2.609,36.479-27.41,28.851
	c0,0-4.59,0.25-6.09-4.08c0,0,1.891,0.18,1.73-3.551c-0.047-1.342,0.066-2.686,0.34-4c0.355-1.758,1.275-3.352,2.621-4.539l0,0
	c0,0,5.549-9.621,22.699-11.371c0,0,4-2.439,4.93-2.21l-3.41,5.771c0,0-4.129-2.67-8-1.52c0,0,7.881,1.25,7.541,2.4
	c-0.07,0.229-2,3-2,3s-7.201-4.611-13.141-2.641c0,0,9.59,0.221,12.43,3.689l-3.07,4c0,0-7.299-5.25-14.17-3.25
	c0,0,10,0.59,13.48,4.08l-3.549,3.5c0,0-7.291-5-13-3.289c0,0,11.5,1.85,12.1,4c0,0-3.461,3-4.76,3.369c0,0-5.311-3.449-8.531-2.18
	c0,0,7.561,2.051,7.48,2.9c0,0-5.551,2.719-9.09,2.609c3.252,0.26,6.516-0.332,9.471-1.721c-0.629,1.91-1.805,3.594-3.381,4.84
	c0,0,3.68,0,4.721-5.52c0,0,4.238-2.289,4.568-3c0,0-0.26,5.541-2.18,8.66c0,0,3.791-2.469,3.16-9.561l3.65-3.43
	c0,0,0,7.35-1.471,10.26c0,0,3.48-3.119,2.32-11.199l3.061-3.85c0,0,0.51,6.32-0.461,9.92c0,0,2.602-3.59,1.291-11.061l1.74-2.82
	c0,0,0.289,4.631,0.26,6c-0.029,1.371,0.32,1.461,0.32,1.461c0.852-2.793,0.914-5.766,0.18-8.59
	C534.727,132.499,538.006,126.398,538.346,126.568z"/>
<g>
	<path fill="#032651" d="M83.368,424.468c5.278,19.511,23.357,31.595,23.357,31.595s9.521-19.55,4.243-39.061
		c-5.278-19.512-23.357-31.596-23.357-31.596S78.091,404.957,83.368,424.468z"/>
	<path fill="#00AEEF" d="M91.124,420.274c14.483,14.099,16.252,35.772,16.252,35.772s-21.712-1.186-36.195-15.284
		c-14.483-14.1-16.252-35.772-16.252-35.772S76.642,406.176,91.124,420.274z"/>
	<path fill="#032651" d="M113.873,475.406H93.41v-20.463h20.463V475.406z M94.984,473.832h17.314v-17.314H94.984V473.832z"/>
</g>
<g>
	<rect x="232.299" y="173.898" fill="#00489E" width="154.473" height="154.473"/>
	<rect x="42.923" y="173.898" fill="#00489E" width="154.473" height="154.473"/>
	<g opacity="0.25">
		<path fill="#00AEEF" d="M386.771,212.332v3.545c-2.354-1.56-4.256-3.715-5.51-6.245c-2.057-4.205-1.991-9.054-1.926-13.743
			c0.074-5.574,0.148-10.832-3.388-14.257c-3.89-3.759-10.115-3.229-16.136-2.717c-0.707,0.056-1.414,0.121-2.112,0.177
			c-6.039,0.456-12.767-1.069-16.033-5.193h4.075c2.987,2.011,7.557,2.718,11.754,2.401c0.679-0.047,1.377-0.111,2.074-0.167
			c6.338-0.54,13.521-1.154,18.313,3.49c4.411,4.261,4.328,10.384,4.244,16.303c-0.065,4.364-0.121,8.868,1.646,12.479
			C384.508,209.896,385.526,211.229,386.771,212.332z"/>
		<path fill="#00AEEF" d="M386.771,236.852v4.149c-0.678-0.885-1.438-1.704-2.271-2.446c-4.802-4.234-11.697-5.165-18.359-6.076
			c-0.866-0.112-1.712-0.232-2.56-0.354c-10.804-1.555-17.504-5.268-20.472-11.326c-2.057-4.205-1.992-9.054-1.927-13.744
			c0.075-5.573,0.149-10.831-3.387-14.256c-3.89-3.759-10.116-3.229-16.136-2.717c-0.707,0.056-1.415,0.121-2.112,0.177
			c-7.761,0.586-16.667-2.104-17.886-9.371c-0.418-2.493,0.204-4.782,1.126-6.989h3.052c-1.022,2.215-1.786,4.356-1.423,6.524
			c0.921,5.546,8.384,7.537,14.926,7.044c0.68-0.047,1.378-0.111,2.075-0.168c6.337-0.539,13.521-1.153,18.313,3.489
			c4.41,4.263,4.327,10.386,4.243,16.305c-0.065,4.364-0.121,8.868,1.646,12.478c2.531,5.175,8.534,8.375,18.36,9.79
			c0.838,0.121,1.685,0.241,2.531,0.354c7.072,0.958,14.396,1.953,19.839,6.746C386.492,236.581,386.632,236.712,386.771,236.852z"
			/>
		<path fill="#00AEEF" d="M386.771,306.811v5.732c-3.359-3.573-6.17-8.478-8.319-14.61c-0.456-1.302-0.894-2.633-1.331-3.963
			c-2.41-7.287-4.904-14.815-10.841-19.626c-6.347-5.137-15.438-6.272-24.232-7.37c-1.125-0.14-2.252-0.279-3.368-0.428
			c-14.257-1.889-23.087-6.385-27.005-13.735c-2.718-5.108-2.633-10.99-2.55-16.676c0.103-6.756,0.205-13.139-4.467-17.29
			c-5.127-4.56-13.344-3.917-21.281-3.294c-0.94,0.074-1.871,0.149-2.782,0.214c-10.246,0.707-21.999-2.55-23.6-11.362
			c-0.79-4.317,1.229-8.143,3.174-11.845c1.116-2.122,2.177-4.142,2.717-6.218c1.136-4.271-0.271-9.081-3.387-12.441h4.56
			c2.661,3.866,3.539,8.688,2.41,13.243c-0.643,2.428-1.833,4.698-2.987,6.896c-1.777,3.368-3.443,6.55-2.856,9.807
			c1.228,6.719,11.063,9.139,19.69,8.544c0.902-0.065,1.824-0.141,2.745-0.205c8.356-0.661,17.829-1.396,24.157,4.233
			c5.815,5.165,5.704,12.591,5.593,19.766c-0.075,5.295-0.159,10.757,2.168,15.14c3.34,6.263,11.269,10.152,24.231,11.874
			c1.099,0.149,2.215,0.289,3.331,0.428c9.344,1.163,18.993,2.364,26.168,8.181c6.729,5.452,9.38,13.445,11.93,21.179
			c0.438,1.321,0.875,2.624,1.321,3.918C383.144,300.393,384.76,303.721,386.771,306.811z"/>
		<path fill="#00AEEF" d="M232.299,236.274c4.243,5.137,13.241,7.035,21.31,6.477c0.912-0.065,1.843-0.14,2.782-0.213
			c7.938-0.624,16.154-1.267,21.281,3.293c4.672,4.151,4.569,10.534,4.468,17.29c-0.085,5.686-0.168,11.567,2.549,16.676
			c3.918,7.351,12.749,11.847,27.005,13.735c1.117,0.149,2.243,0.288,3.368,0.428c8.795,1.098,17.886,2.233,24.232,7.369
			c5.938,4.812,8.431,12.34,10.841,19.626c0.438,1.331,0.875,2.662,1.33,3.964c0.42,1.201,0.866,2.345,1.331,3.452h3.983
			c-0.698-1.516-1.294-3.032-1.806-4.484c-0.446-1.294-0.884-2.597-1.321-3.918c-2.55-7.733-5.202-15.727-11.93-21.179
			c-7.175-5.816-16.824-7.018-26.167-8.181c-1.117-0.139-2.233-0.278-3.332-0.428c-12.962-1.722-20.891-5.611-24.231-11.874
			c-2.326-4.383-2.242-9.845-2.168-15.14c0.111-7.175,0.223-14.601-5.593-19.766c-6.328-5.629-15.801-4.895-24.157-4.233
			c-0.921,0.064-1.842,0.14-2.745,0.205c-8.626,0.595-18.462-1.825-19.69-8.544c-0.587-3.257,1.079-6.438,2.856-9.807
			c1.154-2.197,2.345-4.468,2.987-6.896c1.75-6.646-1.201-14.005-7.184-18.025v4.56c3.267,3.368,4.755,8.292,3.601,12.665
			c-0.539,2.075-1.601,4.095-2.717,6.217c-0.298,0.566-0.596,1.125-0.884,1.702V236.274z"/>
		<path fill="#00AEEF" d="M300.63,328.371h-3.862c-0.204-0.604-0.4-1.219-0.604-1.833c-2.411-7.286-4.904-14.813-10.842-19.625
			c-6.347-5.137-15.438-6.272-24.231-7.37c-1.126-0.139-2.252-0.279-3.369-0.428c-12.581-1.666-20.946-5.37-25.422-11.27v-9.259
			c0.287,1.849,0.868,3.639,1.722,5.304c3.34,6.264,11.269,10.153,24.23,11.875c1.099,0.148,2.215,0.288,3.332,0.428
			c9.343,1.163,18.993,2.363,26.168,8.18c6.727,5.452,9.379,13.446,11.929,21.179C299.996,326.502,300.304,327.441,300.63,328.371z"
			/>
	</g>
	<path fill="#00AEEF" d="M306.743,185.065c-0.002,27.24-22.087,49.322-49.327,49.32c-8.838-0.001-17.513-2.376-25.117-6.877v-53.61
		h73.17C306.32,177.56,306.748,181.307,306.743,185.065z"/>
	<circle fill="#00AEEF" cx="346.757" cy="215.774" r="29.778"/>
	<circle fill="#00AEEF" cx="279.757" cy="279.053" r="21.403"/>
	<path fill="#00AEEF" d="M386.771,303.061v25.311h-30.625c-3.597-11.261,2.616-23.305,13.878-26.901
		C375.589,299.692,381.64,300.267,386.771,303.061L386.771,303.061z"/>
	<circle fill="#4285F4" cx="333.729" cy="278.122" r="5.583"/>
	<rect x="422.604" y="173.898" fill="#00489E" width="154.473" height="154.473"/>
	<circle fill="#FFFFFF" cx="118.636" cy="174.021" r="14.021"/>
	<circle fill="#F2F2F2" cx="315.258" cy="174.021" r="14.021"/>
	<circle fill="#FFFFFF" cx="502.065" cy="174.021" r="14.021"/>
	<circle fill="#FFB8B8" cx="300.887" cy="242.373" r="13.32"/>
	<path fill="#FFB8B8" d="M293.876,248.682c0,0,3.505,18.228,2.104,21.732c-1.402,3.506,19.629-1.401,19.629-1.401
		s-4.206-18.228-3.506-22.435C312.804,242.372,293.876,248.682,293.876,248.682z"/>
	<polygon fill="#FFB8B8" points="270.741,311.775 272.144,330.704 279.103,360.431 281.257,368.561 284.763,355.941 
		281.257,327.198 280.066,314.258 	"/>
	<path fill="#FFB8B8" d="M344.351,308.971v19.63c0,0-2.103,25.238-6.309,31.548c-4.206,6.309-5.608-25.238-5.608-25.238
		l3.296-23.135L344.351,308.971z"/>
	<path fill="#002E6E" d="M281.958,369.963c0,0-3.505,4.206-0.701,46.97c2.805,42.764,4.907,82.723,12.619,83.424
		s11.217,1.402,11.918-0.701s0-9.113,1.402-20.33c1.401-11.217,1.401-68.887,4.907-75.897l11.217,27.585c0,0,0,14.662,2.103,20.271
		c2.103,5.609,5.608,37.856,5.608,37.856l-0.701,4.908c0,0,16.825,2.803,17.526,0c0.701-2.805,2.104-17.526,1.402-19.63
		c-0.701-2.103-0.701-47.672-0.701-47.672s-1.402-55.381-9.814-58.186C330.33,365.756,281.958,369.963,281.958,369.963z"/>
	<path fill="#CCCCCC" d="M291.072,494.749l-5.609,9.813c0,0-8.762-3.154-7.01,4.908c15.072,1.052,25.588-0.351,25.588-0.351
		s3.506,1.402,4.206-0.701c0.701-2.104-1.752-9.465-3.855-9.465S291.072,494.749,291.072,494.749z"/>
	<path fill="#CCCCCC" d="M331.732,491.944c0,0-5.608,12.618-3.506,13.319c2.104,0.701,21.032,3.506,22.434,4.207
		c1.402,0.701,8.413,1.402,9.114-2.805c0.7-4.206-3.506-5.608-3.506-5.608s-7.711-1.402-9.814-8.412
		C344.351,485.635,331.732,491.944,331.732,491.944z"/>
	<path fill="#54D6A1" d="M317.011,266.909c0,0-18.929-3.506-23.135,0c-4.206,3.505-21.732,10.515-21.732,14.021
		s9.113,37.856,9.113,37.856s-5.456,51.878-0.549,53.279c4.907,1.402,6.108,4.714,29.722,4.848
		c23.614,0.135,30.721-6.95,30.721-6.95s-9.418-44.867-6.613-53.28c2.804-8.411,4.906-37.155,4.906-37.155
		S327.526,266.909,317.011,266.909z"/>
	<path fill="#54D6A1" d="M277.051,278.826l-4.907,1.402c0,0-10.516,32.949-6.31,34.352s16.124,4.206,17.526,4.206
		C284.762,318.786,277.051,278.826,277.051,278.826z"/>
	<path fill="#54D6A1" d="M328.227,275.322l11.217,4.205c0,0,14.723,27.342,11.218,30.846c-3.506,3.506-18.929,7.011-18.929,7.011
		L328.227,275.322z"/>
	<path fill="#2F2E41" d="M300.482,225.92c-1.108-0.2-2.247-0.149-3.332,0.147c-0.869,0.385-1.67,0.91-2.368,1.554
		c-1.269,1.011-2.623,1.908-4.049,2.682c-1.136,0.618-2.357,1.188-3.15,2.209c-0.375,0.516-0.674,1.083-0.889,1.683
		c-1.366,3.489-1.733,7.29-1.061,10.977c0.075,0.522,0.233,1.032,0.467,1.507c0.729,1.343,2.338,1.871,3.694,2.575
		c2.573,1.336,4.524,3.585,6.635,5.574c0.785,0.782,1.666,1.461,2.622,2.021c3.012,1.642,6.693,1.106,10.074,0.525
		c1.002-0.002,1.813-0.815,1.812-1.819c0-0.004,0-0.009,0-0.013l2.668-12.003c0.484-1.777,0.715-3.615,0.685-5.458
		c-0.187-2.914-1.764-6.949-3.902-9.02C307.896,226.649,303.738,226.266,300.482,225.92z"/>
	<g>
		<path opacity="0.3" fill="#00AEEF" enable-background="new    " d="M497.727,198.158h-45.857
			c-0.307,0.001-0.557-0.248-0.558-0.555c-0.002-0.308,0.247-0.558,0.555-0.559c0.001,0,0.002,0,0.002,0h45.858
			c0.308,0.001,0.555,0.251,0.555,0.559C498.279,197.909,498.032,198.157,497.727,198.158z"/>
		<path opacity="0.3" fill="#00AEEF" enable-background="new    " d="M547.924,204.279H475.8c-0.308,0-0.557-0.249-0.557-0.557
			s0.249-0.556,0.557-0.556l0,0h72.124c0.308,0,0.556,0.248,0.556,0.556S548.231,204.279,547.924,204.279z"/>
		<path opacity="0.3" fill="#00AEEF" enable-background="new    " d="M497.948,210.401h-45.856c-0.307,0-0.556-0.25-0.556-0.557
			c0-0.308,0.249-0.557,0.556-0.557h45.856c0.308,0,0.558,0.249,0.558,0.557C498.506,210.151,498.256,210.401,497.948,210.401z"/>
		<path opacity="0.3" fill="#00AEEF" enable-background="new    " d="M547.924,210.513h-45.856c-0.308,0-0.557-0.249-0.557-0.557
			s0.249-0.557,0.557-0.557h45.856c0.308,0,0.556,0.249,0.556,0.557S548.231,210.513,547.924,210.513z"/>
		<path opacity="0.3" fill="#00AEEF" enable-background="new    " d="M498.061,216.522h-45.857c-0.308,0-0.557-0.249-0.557-0.557
			c0-0.307,0.249-0.556,0.557-0.556h45.857c0.307,0,0.557,0.249,0.557,0.556C498.617,216.273,498.367,216.522,498.061,216.522z"/>
		<path opacity="0.3" fill="#00AEEF" enable-background="new    " d="M498.172,222.645h-45.857c-0.308,0-0.557-0.249-0.557-0.557
			s0.249-0.557,0.557-0.557h45.857c0.307,0,0.556,0.249,0.556,0.557S498.479,222.645,498.172,222.645z"/>
		<path opacity="0.3" fill="#00AEEF" enable-background="new    " d="M518.984,198.27h-13.134c-0.307,0-0.556-0.25-0.556-0.557
			c0-0.308,0.249-0.558,0.556-0.558h13.134c0.308,0,0.557,0.25,0.557,0.558C519.541,198.02,519.292,198.27,518.984,198.27z"/>
		<path opacity="0.3" fill="#00AEEF" enable-background="new    " d="M518.984,216.522h-13.134c-0.307,0-0.556-0.249-0.556-0.557
			c0-0.307,0.249-0.556,0.556-0.556h13.134c0.308,0,0.557,0.249,0.557,0.556C519.541,216.273,519.292,216.522,518.984,216.522z"/>
		<path opacity="0.3" fill="#00AEEF" enable-background="new    " d="M518.984,222.533h-13.134c-0.307,0-0.558-0.247-0.558-0.556
			c-0.001-0.306,0.247-0.557,0.555-0.558h0.003h13.134c0.308-0.001,0.558,0.247,0.559,0.556c0.002,0.307-0.247,0.557-0.555,0.558
			C518.988,222.533,518.986,222.533,518.984,222.533z"/>
		<path opacity="0.3" fill="#00AEEF" enable-background="new    " d="M541.022,222.533h-13.134
			c-0.307-0.001-0.556-0.251-0.555-0.558s0.249-0.555,0.555-0.556h13.134c0.308-0.001,0.558,0.247,0.559,0.556
			c0.001,0.307-0.248,0.557-0.555,0.558C541.025,222.533,541.023,222.533,541.022,222.533z"/>
		<path opacity="0.3" fill="#00AEEF" enable-background="new    " d="M464.892,204.279h-13.134c-0.307,0-0.557-0.249-0.557-0.557
			s0.25-0.556,0.557-0.556l0,0h13.134c0.308,0,0.557,0.248,0.557,0.556S465.199,204.279,464.892,204.279z"/>
		<path opacity="0.3" fill="#00AEEF" enable-background="new    " d="M497.781,288.313h-45.856c-0.307,0-0.556-0.249-0.556-0.556
			c0-0.308,0.249-0.558,0.556-0.558l0,0h45.856c0.308,0,0.557,0.25,0.557,0.558C498.338,288.063,498.089,288.313,497.781,288.313z"
			/>
		<path opacity="0.3" fill="#00AEEF" enable-background="new    " d="M497.56,300.557h-45.857c-0.307,0-0.557-0.249-0.557-0.557
			s0.25-0.558,0.557-0.558h45.857c0.307,0,0.557,0.25,0.557,0.558S497.866,300.557,497.56,300.557z"/>
		<path opacity="0.3" fill="#00AEEF" enable-background="new    " d="M497.671,306.678h-45.857c-0.308,0-0.557-0.25-0.557-0.558
			c0-0.305,0.249-0.555,0.557-0.555l0,0h45.857c0.307,0,0.556,0.25,0.556,0.555C498.227,306.428,497.978,306.678,497.671,306.678z"
			/>
		<path opacity="0.3" fill="#00AEEF" enable-background="new    " d="M517.26,300.667h-13.134c-0.308,0-0.557-0.249-0.557-0.556
			c0-0.308,0.249-0.558,0.557-0.558l0,0h13.134c0.308,0,0.557,0.25,0.557,0.558C517.816,300.418,517.567,300.667,517.26,300.667
			L517.26,300.667z"/>
		<path opacity="0.3" fill="#00AEEF" enable-background="new    " d="M517.26,306.678h-13.134c-0.308,0-0.557-0.25-0.557-0.558
			c0-0.305,0.249-0.555,0.557-0.555h13.134c0.308,0,0.557,0.25,0.557,0.555C517.816,306.428,517.567,306.678,517.26,306.678
			L517.26,306.678z"/>
		<path opacity="0.3" fill="#00AEEF" enable-background="new    " d="M539.298,300.667h-13.134c-0.308,0-0.557-0.249-0.557-0.556
			c0-0.308,0.249-0.558,0.557-0.558l0,0h13.134c0.307,0,0.557,0.25,0.557,0.558C539.854,300.418,539.604,300.667,539.298,300.667z"
			/>
		<path opacity="0.3" fill="#00AEEF" enable-background="new    " d="M547.979,294.435h-72.124c-0.308,0-0.557-0.25-0.557-0.558
			c0-0.307,0.249-0.555,0.557-0.555l0,0h72.124c0.307,0,0.557,0.248,0.557,0.555C548.536,294.185,548.286,294.435,547.979,294.435z"
			/>
		<path opacity="0.3" fill="#00AEEF" enable-background="new    " d="M464.948,294.435h-13.135c-0.308,0-0.557-0.25-0.557-0.558
			c0-0.307,0.249-0.555,0.557-0.555l0,0h13.135c0.306,0,0.556,0.248,0.556,0.555C465.504,294.185,465.254,294.435,464.948,294.435z"
			/>
		<path opacity="0.3" fill="#00AEEF" enable-background="new    " d="M547.979,312.91h-72.124c-0.308,0-0.557-0.249-0.557-0.556
			c0-0.308,0.249-0.557,0.557-0.557l0,0h72.124c0.307,0,0.557,0.249,0.557,0.557C548.536,312.661,548.286,312.91,547.979,312.91z"/>
		<path opacity="0.3" fill="#00AEEF" enable-background="new    " d="M464.948,312.91h-13.135c-0.308,0-0.557-0.249-0.557-0.556
			c0-0.308,0.249-0.557,0.557-0.557l0,0h13.135c0.306,0,0.556,0.249,0.556,0.557C465.504,312.661,465.254,312.91,464.948,312.91z"/>
		<polygon fill="#00AEEF" points="486.708,237.337 468.898,254.922 486.708,272.509 490.714,268.501 477.247,255.032 
			490.825,241.455 		"/>
		<polygon fill="#00AEEF" points="512.975,237.337 530.783,254.922 512.975,272.509 508.968,268.501 522.436,255.032 
			508.856,241.455 		"/>
	</g>
	<path fill="#54D6A1" d="M161.506,203.892h-15.101c-1.03-5.958-1.03-12.048,0-18.006h15.101
		C159.806,191.768,159.806,198.01,161.506,203.892z"/>
	<path fill="#00AEEF" d="M57.731,207.45h15.101c1.03-5.957,1.03-12.049,0-18.006H57.731
		C59.434,195.326,59.434,201.569,57.731,207.45z"/>
	<path fill="#00AEEF" d="M67.641,221.608c2.48,12.498,3.186,25.283,2.098,37.977c-0.286,3.306-0.695,6.597-1.228,9.874
		c-0.242,1.49-0.518,2.974-0.801,4.456c-0.162,0.85-0.505,1.907,0.03,2.706c1.04,1.558,4.605,1.151,6.177,1.203
		c3.268,0.104,6.541,0.123,9.812,0.18l9.838,0.172l4.736,0.082c1.613,0.029,3.38,0.279,4.982,0.072
		c2.105-0.271,1.592-2.479,1.561-4.117c-0.063-3.24-0.149-6.481-0.26-9.722c-0.435-12.839-1.234-25.66-2.399-38.46
		c-0.149-1.635-0.057-3.588-0.497-5.167c-0.177-0.638-0.354-0.822-1.049-0.938c-1.587-0.262-3.479,0.015-5.087,0.025l-5.372,0.037
		l-21.849,0.152c-0.303,0.011-0.54,0.265-0.53,0.567c0.011,0.288,0.241,0.52,0.53,0.529l17.909-0.125l7.88-0.055l4.298-0.029
		c0.883-0.006,1.709-0.274,2.263,0.698c0.351,0.615,0.207,2.152,0.274,2.869c1.069,11.477,1.847,22.975,2.328,34.495
		c0.121,2.88,0.223,5.758,0.308,8.64c0.033,1.199,0.065,2.399,0.094,3.6c0.017,0.721,0.033,1.441,0.048,2.162
		c0.015,0.741,0.322,2.198,0.052,2.88c-0.574,1.455-3.138,0.83-4.391,0.809l-4.373-0.077l-8.744-0.152l-8.744-0.153
		c-1.446-0.024-2.893-0.035-4.337-0.096c-0.479-0.023-0.96-0.045-1.439-0.08c-1.424-0.101-2.959,0.236-3.128-1.733
		c-0.104-1.216,0.561-2.893,0.768-4.108c0.234-1.372,0.447-2.75,0.64-4.129c0.357-2.579,0.644-5.166,0.855-7.762
		c1.005-12.565,0.267-25.209-2.194-37.572C68.562,220.625,67.504,220.918,67.641,221.608L67.641,221.608z"/>
	<path fill="#00AEEF" d="M139.668,221.608c2.479,12.498,3.187,25.283,2.097,37.977c-0.285,3.306-0.694,6.597-1.227,9.874
		c-0.242,1.49-0.518,2.974-0.802,4.456c-0.162,0.85-0.504,1.907,0.03,2.706c1.041,1.558,4.606,1.151,6.177,1.203
		c3.269,0.104,6.542,0.123,9.813,0.18l9.837,0.172l4.736,0.082c1.613,0.029,3.381,0.279,4.981,0.072
		c2.107-0.271,1.594-2.479,1.563-4.117c-0.064-3.24-0.149-6.481-0.26-9.722c-0.435-12.839-1.234-25.66-2.4-38.46
		c-0.149-1.635-0.056-3.588-0.496-5.167c-0.178-0.638-0.355-0.822-1.048-0.938c-1.588-0.262-3.48,0.015-5.087,0.025l-5.374,0.037
		l-21.848,0.152c-0.304,0.011-0.54,0.265-0.53,0.567c0.011,0.288,0.242,0.52,0.53,0.529l17.908-0.125l7.88-0.055l4.298-0.029
		c0.885-0.006,1.71-0.274,2.264,0.698c0.35,0.615,0.206,2.152,0.273,2.869c1.069,11.477,1.847,22.975,2.329,34.495
		c0.12,2.88,0.222,5.758,0.307,8.64c0.034,1.199,0.066,2.399,0.095,3.6c0.017,0.721,0.032,1.441,0.048,2.162
		c0.015,0.741,0.323,2.198,0.053,2.88c-0.575,1.455-3.14,0.83-4.393,0.809l-4.372-0.077l-8.744-0.152l-8.743-0.153
		c-1.445-0.024-2.895-0.035-4.339-0.096c-0.479-0.023-0.959-0.045-1.438-0.08c-1.425-0.101-2.96,0.236-3.129-1.733
		c-0.104-1.216,0.56-2.893,0.769-4.108c0.234-1.372,0.446-2.75,0.638-4.129c0.359-2.579,0.645-5.166,0.857-7.762
		c1.004-12.565,0.265-25.209-2.196-37.572C140.588,220.625,139.531,220.918,139.668,221.608L139.668,221.608z"/>
	<path fill="#00AEEF" d="M72.685,224.433h7.254c0.303-0.011,0.541-0.265,0.531-0.567c-0.012-0.288-0.242-0.52-0.531-0.529h-7.254
		c-0.304,0.01-0.541,0.264-0.53,0.566C72.165,224.191,72.396,224.423,72.685,224.433z"/>
	<path fill="#00AEEF" d="M72.684,226.906l6.838-0.258c0.704-0.027,0.707-1.124,0-1.097l-6.838,0.258
		C71.98,225.837,71.977,226.934,72.684,226.906z"/>
	<path fill="#00AEEF" d="M72.685,228.993h6.632c0.304-0.012,0.54-0.265,0.53-0.568c-0.011-0.288-0.242-0.52-0.53-0.529h-6.632
		c-0.304,0.01-0.541,0.265-0.53,0.567C72.165,228.752,72.396,228.981,72.685,228.993z"/>
	<path fill="#00AEEF" d="M94.664,223.918c-1.488-0.777-2.839,0.5-3.049,1.96c-0.104,0.714-0.126,1.689,0.329,2.295
		c0.465,0.618,1.357,0.879,2.101,0.924c1.415,0.087,2.922-0.702,3.27-2.152c0.341-1.333-0.382-2.708-1.673-3.185
		c-0.668-0.232-0.955,0.828-0.291,1.058c0.632,0.263,1.015,0.912,0.938,1.592c-0.09,0.782-0.688,1.412-1.466,1.538
		c-0.906,0.207-1.966-0.016-2.142-1.036c-0.13-0.765,0.284-2.644,1.429-2.047C94.736,225.191,95.291,224.244,94.664,223.918
		L94.664,223.918z"/>
	<path fill="#00AEEF" d="M144.712,224.433h7.254c0.302-0.011,0.54-0.265,0.529-0.567c-0.01-0.288-0.241-0.52-0.529-0.529h-7.254
		c-0.304,0.01-0.541,0.264-0.53,0.566C144.191,224.191,144.423,224.423,144.712,224.433z"/>
	<path fill="#00AEEF" d="M144.711,226.906l6.838-0.258c0.704-0.027,0.707-1.124,0-1.097l-6.838,0.258
		C144.007,225.837,144.003,226.934,144.711,226.906z"/>
	<path fill="#00AEEF" d="M144.712,228.993h6.632c0.303-0.012,0.539-0.265,0.529-0.568c-0.01-0.288-0.241-0.52-0.529-0.529h-6.632
		c-0.304,0.01-0.541,0.265-0.53,0.567C144.191,228.752,144.423,228.981,144.712,228.993z"/>
	<path fill="#00AEEF" d="M74.135,235.008c7.98,0.084,15.951-0.162,23.915-0.739l-0.528-0.694c-1.304,3.303-1.269,6.784-1.095,10.277
		c0.044,0.876,0.317,2.057,0.14,2.924c-0.224,1.091-1.202,0.83-2.175,0.861c-2.146,0.069-4.29,0.12-6.436,0.149
		c-2.025,0.028-4.052,0.04-6.077,0.035c-0.954-0.005-1.907-0.01-2.861-0.021c-1.118-0.013-2.392,0.313-2.682-0.984
		c-0.186-0.831,0.002-1.924,0.002-2.778l0.002-3.124l0.005-6.25c-0.01-0.302-0.265-0.539-0.568-0.528
		c-0.288,0.009-0.518,0.24-0.528,0.528l-0.005,7.64l-0.003,3.472c0,0.69-0.144,1.522,0.114,2.176
		c0.592,1.508,3.151,0.942,4.378,0.954c2.504,0.021,5.008,0.02,7.509-0.012c2.503-0.031,5.005-0.088,7.507-0.171
		c1.078-0.036,2.569,0.21,2.896-1.119c0.229-0.934-0.039-2.146-0.088-3.098c-0.056-1.086-0.115-2.172-0.13-3.257
		c-0.034-2.539,0.215-5.008,1.152-7.383c0.078-0.293-0.095-0.596-0.389-0.675c-0.046-0.013-0.093-0.019-0.141-0.019
		c-7.959,0.577-15.932,0.822-23.915,0.738c-0.302,0.011-0.54,0.265-0.529,0.567C73.615,234.766,73.847,234.998,74.135,235.008
		L74.135,235.008z"/>
	<path fill="#00AEEF" d="M76.409,235.604c3.415,1.207,6.746,2.646,9.968,4.304c2.891,1.494,6.675,3.126,8.665,5.796
		c0.417,0.561,1.369,0.014,0.946-0.554c-2.031-2.727-5.529-4.331-8.467-5.882c-3.488-1.83-7.105-3.409-10.821-4.723
		C76.034,234.31,75.747,235.367,76.409,235.604L76.409,235.604z"/>
	<path fill="#00AEEF" d="M97.863,233.65c-3.624,1.55-6.695,4.537-9.935,6.748c-3.506,2.396-7.116,4.624-10.831,6.687
		c-0.616,0.345-0.063,1.293,0.553,0.948c3.708-2.07,7.317-4.299,10.832-6.687c3.238-2.214,6.312-5.201,9.935-6.75
		C99.063,234.321,98.506,233.375,97.863,233.65L97.863,233.65z"/>
	<path fill="#00AEEF" d="M146.162,235.008c7.979,0.084,15.951-0.162,23.915-0.739l-0.529-0.694
		c-1.303,3.303-1.268,6.784-1.094,10.277c0.043,0.876,0.317,2.057,0.139,2.924c-0.222,1.091-1.202,0.83-2.175,0.861
		c-2.145,0.069-4.289,0.12-6.435,0.149c-2.025,0.028-4.052,0.04-6.078,0.035c-0.953-0.005-1.908-0.01-2.861-0.021
		c-1.119-0.013-2.392,0.313-2.681-0.984c-0.186-0.831,0.001-1.924,0.001-2.778l0.003-3.124l0.004-6.25
		c-0.011-0.302-0.265-0.539-0.566-0.528c-0.288,0.009-0.52,0.24-0.53,0.528l-0.005,7.64l-0.002,3.472
		c-0.001,0.69-0.144,1.522,0.114,2.176c0.592,1.508,3.151,0.942,4.379,0.954c2.502,0.021,5.005,0.02,7.508-0.012
		c2.504-0.031,5.005-0.088,7.507-0.171c1.077-0.036,2.568,0.21,2.896-1.119c0.228-0.934-0.039-2.146-0.088-3.098
		c-0.056-1.086-0.115-2.172-0.131-3.257c-0.033-2.539,0.215-5.008,1.152-7.383c0.08-0.293-0.095-0.596-0.388-0.675
		c-0.046-0.013-0.093-0.019-0.141-0.019c-7.96,0.577-15.931,0.822-23.915,0.738c-0.303,0.011-0.54,0.265-0.529,0.567
		C145.644,234.766,145.873,234.998,146.162,235.008L146.162,235.008z"/>
	<path fill="#00AEEF" d="M148.437,235.604c3.415,1.207,6.745,2.646,9.967,4.304c2.891,1.494,6.676,3.126,8.665,5.796
		c0.417,0.561,1.37,0.014,0.947-0.554c-2.031-2.727-5.528-4.331-8.467-5.882c-3.489-1.83-7.105-3.409-10.821-4.723
		C148.062,234.31,147.775,235.367,148.437,235.604z"/>
	<path fill="#00AEEF" d="M169.891,233.65c-3.624,1.55-6.695,4.537-9.936,6.748c-3.505,2.396-7.115,4.624-10.831,6.687
		c-0.616,0.345-0.063,1.293,0.554,0.948c3.707-2.07,7.318-4.299,10.831-6.687c3.239-2.214,6.312-5.201,9.936-6.75
		C171.091,234.321,170.532,233.375,169.891,233.65L169.891,233.65z"/>
	<path fill="#00AEEF" d="M146.162,256.945c7.979,0.083,15.951-0.163,23.915-0.738l-0.529-0.696
		c-1.303,3.303-1.268,6.785-1.094,10.279c0.043,0.875,0.317,2.055,0.139,2.923c-0.222,1.091-1.202,0.83-2.175,0.86
		c-2.145,0.071-4.289,0.12-6.435,0.15c-2.025,0.028-4.052,0.04-6.078,0.033c-0.953-0.002-1.908-0.01-2.861-0.02
		c-1.119-0.013-2.392,0.312-2.681-0.985c-0.186-0.831,0.001-1.922,0.001-2.776l0.003-3.125l0.004-6.249
		c-0.011-0.304-0.265-0.541-0.566-0.53c-0.288,0.01-0.52,0.24-0.53,0.53l-0.005,7.638l-0.002,3.472
		c-0.001,0.689-0.144,1.523,0.114,2.178c0.592,1.506,3.151,0.941,4.379,0.953c2.502,0.022,5.005,0.02,7.508-0.012
		c2.504-0.03,5.005-0.088,7.507-0.172c1.077-0.035,2.568,0.21,2.896-1.119c0.228-0.932-0.039-2.146-0.088-3.098
		c-0.056-1.086-0.115-2.171-0.131-3.257c-0.033-2.538,0.215-5.007,1.152-7.381c0.08-0.295-0.095-0.598-0.388-0.677
		c-0.046-0.012-0.093-0.019-0.141-0.019c-7.96,0.577-15.931,0.822-23.915,0.74c-0.303,0.01-0.54,0.263-0.529,0.566
		C145.644,256.703,145.873,256.935,146.162,256.945L146.162,256.945z"/>
	<path fill="#00AEEF" d="M148.437,257.54c3.415,1.208,6.745,2.647,9.967,4.305c2.891,1.494,6.676,3.127,8.665,5.797
		c0.417,0.56,1.37,0.013,0.947-0.555c-2.031-2.726-5.528-4.33-8.467-5.88c-3.489-1.831-7.105-3.409-10.821-4.723
		C148.062,256.246,147.775,257.305,148.437,257.54z"/>
	<path fill="#00AEEF" d="M169.891,255.587c-3.624,1.552-6.695,4.536-9.936,6.75c-3.505,2.395-7.115,4.624-10.831,6.687
		c-0.616,0.343-0.063,1.292,0.554,0.946c3.707-2.07,7.318-4.299,10.831-6.687c3.239-2.213,6.312-5.199,9.936-6.748
		C171.091,256.258,170.532,255.312,169.891,255.587z"/>
	<path fill="#00AEEF" d="M76.209,256.119c7.394,0.111,14.786,0.082,22.18-0.09c0.705-0.016,0.707-1.112,0-1.097
		c-7.393,0.172-14.786,0.201-22.18,0.09c-0.304,0.009-0.541,0.264-0.53,0.566C75.688,255.876,75.92,256.108,76.209,256.119z"/>
	<path fill="#00AEEF" d="M76.83,261.091c7.602,0.121,15.202,0.088,22.802-0.099c0.706-0.017,0.708-1.113,0-1.096
		c-7.6,0.186-15.2,0.219-22.802,0.098C76.124,259.982,76.124,261.079,76.83,261.091z"/>
	<path fill="#00AEEF" d="M75.998,266.461l21.559-1.001c0.703-0.033,0.708-1.13,0-1.098l-21.559,1.001
		C75.295,265.396,75.291,266.493,75.998,266.461z"/>
	<path fill="#00AEEF" d="M109.58,250.964h20.52c0.304-0.011,0.541-0.265,0.53-0.566c-0.01-0.289-0.241-0.521-0.53-0.53h-20.52
		c-0.303,0.011-0.54,0.264-0.529,0.567C109.061,250.723,109.292,250.954,109.58,250.964z"/>
	<path fill="#00AEEF" d="M129.202,244.693l3.206,2.926c0.366,0.336,1.376,1.026,1.603,1.464c0.471,0.904-0.035,0.697-0.842,1.012
		c-1.983,0.789-3.812,1.925-5.398,3.353c-0.53,0.466,0.248,1.24,0.775,0.775c1.448-1.301,3.11-2.34,4.914-3.069
		c0.647-0.257,1.874-0.407,2.182-1.177c0.376-0.943-0.822-1.639-1.39-2.157l-4.275-3.901
		C129.457,243.442,128.679,244.217,129.202,244.693L129.202,244.693z"/>
	<path fill="#00AEEF" d="M79.401,287.512h15.101c1.031-5.958,1.031-12.049,0-18.006H79.401
		C81.103,275.387,81.103,281.629,79.401,287.512z"/>
	<path fill="#00AEEF" d="M111.941,316.812h15.102c1.03-5.958,1.03-12.047,0-18.005h-15.102
		C113.643,304.688,113.643,310.93,111.941,316.812z"/>
	<path fill="#00AEEF" d="M111.941,234.496h15.101c1.031-5.958,1.031-12.048,0-18.006h-15.101
		C113.642,222.372,113.642,228.615,111.941,234.496z"/>
	<path fill="#54D6A1" d="M169.442,316.813h-15.101c-1.03-5.958-1.03-12.048,0-18.006h15.101
		C167.742,304.688,167.742,310.931,169.442,316.813z"/>
	<path fill="#00AEEF" d="M80.294,316.813h15.101c1.03-5.958,1.03-12.048,0-18.006H80.294
		C81.996,304.688,81.996,310.931,80.294,316.813z"/>
</g>
</svg>
